<?xml version="1.0" encoding="UTF-8" standalone="no"?>
<svg
   xmlns:dc="http://purl.org/dc/elements/1.1/"
   xmlns:cc="http://creativecommons.org/ns#"
   xmlns:rdf="http://www.w3.org/1999/02/22-rdf-syntax-ns#"
   xmlns:svg="http://www.w3.org/2000/svg"
   xmlns="http://www.w3.org/2000/svg"
   xmlns:sodipodi="http://sodipodi.sourceforge.net/DTD/sodipodi-0.dtd"
   xmlns:inkscape="http://www.inkscape.org/namespaces/inkscape"
   width="1210mm"
   height="700mm"
   viewBox="0 0 1210 700"
   version="1.1"
   id="svg8"
   inkscape:version="1.0 (4035a4fb49, 2020-05-01)"
   sodipodi:docname="Igrisce_overlay.svg"
   inkscape:export-filename="F:\Laboratorij\Fuzbal\igrisceMap.png"
   inkscape:export-xdpi="49"
   inkscape:export-ydpi="49">
  <defs
     id="defs2" />
  <sodipodi:namedview
     id="base"
     pagecolor="#169727"
     bordercolor="#666666"
     borderopacity="1.0"
     inkscape:pageopacity="1"
     inkscape:pageshadow="2"
     inkscape:zoom="0.24748737"
     inkscape:cx="2506.685"
     inkscape:cy="1755.1283"
     inkscape:document-units="mm"
     inkscape:current-layer="layer1"
     showgrid="false"
     showguides="true"
     inkscape:guide-bbox="true"
     inkscape:snap-bbox="true"
     inkscape:snap-bbox-midpoints="true"
     inkscape:window-width="1920"
     inkscape:window-height="1116"
     inkscape:window-x="-8"
     inkscape:window-y="-8"
     inkscape:window-maximized="1"
     inkscape:document-rotation="0"
     inkscape:pagecheckerboard="false">
    <sodipodi:guide
       position="-136.07142,350"
       orientation="0,1"
       id="guide2619"
       inkscape:label=""
       inkscape:locked="false"
       inkscape:color="rgb(0,0,255)" />
  </sodipodi:namedview>
  <metadata
     id="metadata5">
    <rdf:RDF>
      <cc:Work
         rdf:about="">
        <dc:format>image/svg+xml</dc:format>
        <dc:type
           rdf:resource="http://purl.org/dc/dcmitype/StillImage" />
        <dc:title></dc:title>
      </cc:Work>
    </rdf:RDF>
  </metadata>
  <g
     inkscape:label="Layer 1"
     inkscape:groupmode="layer"
     id="layer1"
     transform="translate(0,903)">
    <rect
       y="-301.78885"
       x="1.3491042"
       height="95.76873"
       width="317.15839"
       id="playfield-9"
       style="fill:#469448;fill-opacity:1;stroke:none;stroke-width:1;stroke-linecap:round;stroke-linejoin:round" />
    <rect
       style="fill:#469448;fill-opacity:1;stroke:none;stroke-width:0.99999;stroke-linecap:round;stroke-linejoin:round"
       id="playfield"
       width="168.51279"
       height="130.04507"
       x="1041.1294"
       y="-336.06519" />
    <rect
       rx="20"
       y="-891.24011"
       x="474.67065"
       height="95.147957"
       width="262.99319"
       id="rect8911"
       style="fill:#999999;stroke:#000000;stroke-width:1;stroke-linecap:round;stroke-linejoin:round" />
    <g
       style="stroke-width:2.0673"
       transform="matrix(0.49714385,0,0,0.47067152,754.04127,-105.84831)"
       id="g3468">
      <path
         style="fill:#d41e26;fill-opacity:1;fill-rule:nonzero;stroke:none;stroke-width:0.729289"
         d="m 639.95518,-275.95505 c 0,-4.09816 0.78813,-8.00491 2.17292,-11.619 l -9.31658,-5.37602 c -2.24049,5.21278 -3.47896,10.96037 -3.47896,16.99502 0,22.26976 16.86556,40.59896 38.52174,42.91824 v -10.74079 c -15.76786,-2.263 -27.89912,-15.78473 -27.89912,-32.17745"
         id="path2458" />
      <path
         style="fill:#d41e26;fill-opacity:1;fill-rule:nonzero;stroke:none;stroke-width:0.729289"
         d="m 705.05311,-275.95505 c 0,16.98942 -13.02071,30.92207 -29.62731,32.40262 v 10.66199 c 22.47802,-1.50865 40.24992,-20.20377 40.24992,-43.06461 0,-5.72504 -1.12025,-11.18553 -3.14679,-16.19 l -9.34477,5.39855 c 1.1878,3.38324 1.86895,7.00293 1.86895,10.79145"
         id="path2462" />
      <path
         style="fill:#ffffff;fill-opacity:1;fill-rule:nonzero;stroke:#000000;stroke-width:0.157527;stroke-linecap:butt;stroke-linejoin:miter;stroke-miterlimit:22.9256;stroke-opacity:1"
         d="m 665.8615,-324.6152 v 21.66738 l 14.8165,-10.83651 z m 0,0"
         id="path2466" />
      <path
         style="fill:#d41e26;fill-opacity:1;fill-rule:nonzero;stroke:none;stroke-width:0.729289"
         d="m 636.39743,-299.62088 9.22091,5.31976 c 4.09817,-5.98962 10.14409,-10.53817 17.22582,-12.73924 v -10.98288 c -11.01102,2.52196 -20.42897,9.23779 -26.44673,18.40236"
         id="path2470" />
      <path
         style="fill:#d41e26;fill-opacity:1;fill-rule:nonzero;stroke:none;stroke-width:0.729289"
         d="m 678.2292,-318.75507 6.80027,4.97637 -7.71785,5.64061 c 9.45172,1.4017 17.56925,6.86783 22.53995,14.56881 l 9.22654,-5.32539 c -6.67645,-10.62261 -17.8507,-18.13218 -30.84891,-19.8604"
         id="path2474" />
      <path
         id="path3391-4"
         d="m 768.41935,-256.04236 c 0,0.38276 -0.0674,0.65299 -0.13529,0.83314 -0.13514,0.20262 -0.38277,0.27003 -0.78809,0.27003 h -18.64448 c -2.09412,0 -3.78293,-0.31537 -5.15649,-0.92322 -1.37354,-0.58543 -2.47692,-1.41858 -3.33257,-2.40937 -0.83316,-0.96824 -1.48616,-2.13914 -1.8239,-3.5127 -0.31537,-1.37356 -0.51791,-2.81468 -0.51791,-4.30083 v -33.46093 c 0,-0.45038 0.13529,-0.78813 0.33784,-0.96829 0.18014,-0.13514 0.45034,-0.20261 0.83314,-0.20261 h 3.53525 c 0.45034,0 0.76559,0.0674 0.96824,0.20261 0.20262,0.18016 0.27003,0.51791 0.27003,0.96829 v 33.8437 c 0,3.58026 1.82389,5.35914 5.40415,5.35914 h 18.12658 c 0.40523,0 0.653,0.0674 0.78809,0.24756 0.0674,0.20262 0.13528,0.45038 0.13528,0.78813 z m 0,0"
         style="fill:#ffffff;fill-opacity:1;stroke:none;stroke-width:0.729289" />
      <g
         style="fill:#211e1e;fill-opacity:1;stroke-width:0.50606"
         id="use2576-9"
         transform="matrix(1.4411165,0,0,1.4411165,769.13155,-254.93898)">
        <path
           id="path3395-7"
           d="m 23.71875,0 c -0.28125,0 -0.5,-0.046875 -0.640625,-0.09375 -0.1875,-0.046875 -0.3125,-0.265625 -0.453125,-0.578125 l -2.265625,-6.65625 h -12.75 L 5.34375,-0.671875 C 5.203125,-0.21875 4.890625,0 4.390625,0 H 1.3125 C 1,0 0.8125,-0.09375 0.765625,-0.265625 0.671875,-0.40625 0.671875,-0.640625 0.71875,-0.859375 l 10.234375,-29.09375 c 0.21875,-0.71875 0.5,-1.21875 0.8125,-1.453125 0.3125,-0.21875 0.8125,-0.3125 1.5,-0.359375 h 1.34375 c 0.828125,0 1.359375,0.140625 1.6875,0.40625 0.265625,0.265625 0.53125,0.71875 0.765625,1.40625 l 10.171875,29.09375 c 0.09375,0.21875 0.09375,0.40625 0.04687,0.59375 C 27.1875,-0.09375 27.015625,0 26.703125,0 Z m -7.5625,-20.453125 -2.125,-6.65625 h -0.234375 l -2.03125,6.4375 L 8.6875,-11 h 10.5 z m 0,0"
           style="fill:#ffffff;stroke:none;stroke-width:0.50606" />
      </g>
      <g
         style="fill:#ffffff;fill-opacity:1;stroke-width:0.50606"
         id="use2578-0"
         transform="matrix(1.4411165,0,0,1.4411165,809.43255,-254.93898)">
        <path
           id="path3399-3"
           d="m 3.390625,-30.90625 c 0,-0.3125 0.09375,-0.546875 0.234375,-0.640625 0.125,-0.07813 0.359375,-0.125 0.625,-0.125 h 2.359375 c 0.3125,0 0.546875,0.04687 0.671875,0.125 0.140625,0.09375 0.1875,0.328125 0.1875,0.640625 v 16.015625 l 0.171875,0.04687 4.578125,-5.75 8.421875,-10.53125 c 0.3125,-0.375 0.765625,-0.546875 1.4375,-0.546875 H 25.4375 c 0.21875,0 0.40625,0.04687 0.484375,0.171875 0.04687,0.140625 0,0.328125 -0.125,0.453125 l -8.640625,10.640625 10.9375,19.5 C 28.421875,-0.3125 28.28125,0 27.6875,0 h -2.890625 c -0.453125,0 -0.765625,-0.046875 -1,-0.140625 C 23.578125,-0.1875 23.34375,-0.40625 23.125,-0.8125 L 14.25,-16.96875 7.46875,-8.546875 v 7.78125 c 0,0.3125 -0.046875,0.546875 -0.1875,0.625 C 7.15625,-0.046875 6.921875,0 6.609375,0 H 4.25 C 3.984375,0 3.75,-0.046875 3.625,-0.140625 3.484375,-0.21875 3.390625,-0.453125 3.390625,-0.765625 Z m 0,0"
           style="fill:#ffffff;stroke:none;stroke-width:0.50606" />
      </g>
    </g>
    <text
       xml:space="preserve"
       style="font-style:normal;font-weight:normal;font-size:17.6237px;line-height:1.25;font-family:sans-serif;letter-spacing:0px;word-spacing:0px;fill:#000000;fill-opacity:1;stroke:none;stroke-width:0.264583"
       x="582.56964"
       y="-813.51202"
       id="score_left"
       inkscape:transform-center-x="-10.822163"
       inkscape:transform-center-y="3.3349096"><tspan
         sodipodi:role="line"
         id="tspan853-7-8"
         x="582.56964"
         y="-813.51202"
         style="font-style:normal;font-variant:normal;font-weight:bold;font-stretch:normal;font-size:84.5942px;font-family:Arial;-inkscape-font-specification:'Arial Bold';text-align:end;text-anchor:end;fill:#ffffff;fill-opacity:1;stroke-width:0.264583">00</tspan></text>
    <text
       inkscape:transform-center-y="3.3349096"
       inkscape:transform-center-x="-10.822163"
       id="score_right"
       y="-813.9046"
       x="626.49927"
       style="font-style:normal;font-weight:normal;font-size:17.6237px;line-height:1.25;font-family:sans-serif;letter-spacing:0px;word-spacing:0px;fill:#000000;fill-opacity:1;stroke:none;stroke-width:0.264583"
       xml:space="preserve"><tspan
         style="font-style:normal;font-variant:normal;font-weight:bold;font-stretch:normal;font-size:84.5942px;font-family:Arial;-inkscape-font-specification:'Arial Bold';fill:#ffffff;fill-opacity:1;stroke-width:0.264583"
         y="-813.9046"
         x="626.49927"
         id="tspan853-7-8-0"
         sodipodi:role="line">00</tspan></text>
    <text
       inkscape:transform-center-y="1.5848101"
       inkscape:transform-center-x="-5.1425564"
       id="msg"
       y="-840.84808"
       x="19.04224"
       style="font-style:normal;font-weight:normal;font-size:8.37482px;line-height:1.25;font-family:sans-serif;letter-spacing:0px;word-spacing:0px;fill:#000000;fill-opacity:1;stroke:none;stroke-width:0.264582"
       xml:space="preserve"><tspan
         style="font-style:normal;font-variant:normal;font-weight:bold;font-stretch:normal;font-size:40.199px;font-family:Arial;-inkscape-font-specification:'Arial Bold';fill:#ffffff;fill-opacity:1;stroke-width:0.264582"
         y="-840.84808"
         x="19.04224"
         id="tspan853-7-8-7"
         sodipodi:role="line">Initializing...</tspan></text>
    <g
       transform="matrix(0.79861822,0,0,0.79861822,-59.918802,-862.01698)"
       style="fill:#ffffff;fill-opacity:1;stroke-width:0.441735"
       id="g5973">
      <g
         style="fill:#ffffff;stroke-width:0.441735"
         id="use5961"
         transform="translate(105.0259,802.10303)">
        <path
           id="path8641"
           d="m 27.0625,-2.015625 c 0,0.804687 -0.121094,1.339844 -0.359375,1.609375 -0.242187,0.261719 -0.9375,0.390625 -2.09375,0.390625 h -14.5625 C 8.472656,-0.00390625 7.6875,-0.664063 7.6875,-2 L 7.640625,-51 c 0,-2.394531 0.335938,-4.742188 1.015625,-7.046875 0.6875,-2.300781 1.800781,-4.335938 3.34375,-6.109375 1.539063,-1.769531 3.570313,-3.1875 6.09375,-4.25 2.519531,-1.070313 5.59375,-1.609375 9.21875,-1.609375 l 31.15625,-0.03125 c 0.820313,0 1.351563,0.121094 1.59375,0.359375 0.238281,0.230469 0.363281,0.914062 0.375,2.046875 v 11.296875 c 0,0.867187 -0.136719,1.449219 -0.40625,1.75 -0.273437,0.304687 -0.789062,0.453125 -1.546875,0.453125 l -25.3125,0.01563 c -1.367187,0 -2.460937,0.1875 -3.28125,0.5625 -0.824219,0.367187 -1.445312,0.8125 -1.859375,1.34375 -0.40625,0.53125 -0.679687,1.132812 -0.8125,1.796875 -0.136719,0.667969 -0.199219,1.335937 -0.1875,2 v 6.203125 L 54,-42.25 c 0.8125,0 1.335938,0.136719 1.578125,0.40625 0.238281,0.261719 0.359375,0.960937 0.359375,2.09375 l 0.01563,10.40625 c 0,1.53125 -0.648437,2.296875 -1.9375,2.296875 l -26.96875,0.03125 z m 0,0"
           style="fill:#ffffff;stroke:none;stroke-width:0.441735" />
      </g>
      <g
         style="fill:#ffffff;stroke-width:0.441735"
         id="use5963"
         transform="translate(166.5379,802.05499)">
        <path
           id="path8645"
           d="m 34.015625,-13.234375 c 0.613281,0 1.46875,-0.03125 2.5625,-0.09375 1.09375,-0.07031 2.085938,-0.171875 2.984375,-0.296875 l -0.03125,-36.90625 c 0,-0.800781 0.113281,-1.332031 0.34375,-1.59375 0.238281,-0.269531 0.941406,-0.40625 2.109375,-0.40625 L 55.625,-52.546875 c 1.570313,0 2.359375,0.667969 2.359375,2 l 0.04687,42.703125 c 0,2.136719 -0.34375,3.855469 -1.03125,5.15625 -0.6875,1.292969 -2.226562,2.203125 -4.609375,2.734375 C 51.703125,0.179688 50.675781,0.332031 49.3125,0.5 c -1.367187,0.175781 -2.855469,0.3125 -4.46875,0.40625 -1.605469,0.101563 -3.230469,0.1875 -4.875,0.25 -1.636719,0.070313 -3.03125,0.109375 -4.1875,0.109375 -5.261719,0.00781 -9.742187,-0.433594 -13.4375,-1.328125 -3.6875,-0.90625 -6.695312,-2.40625 -9.015625,-4.5 -2.324219,-2.09375 -4.023437,-4.804688 -5.09375,-8.140625 -1.0625,-3.332031 -1.59375,-7.460938 -1.59375,-12.390625 L 6.609375,-50.5 c 0,-0.800781 0.117188,-1.332031 0.359375,-1.59375 C 7.207031,-52.363281 7.910156,-52.5 9.078125,-52.5 l 13.84375,-0.01563 c 1.570313,0 2.359375,0.667969 2.359375,2 l 0.03125,27.09375 c 0,1.742187 0.09766,3.246094 0.296875,4.515625 0.207031,1.261719 0.632813,2.308594 1.28125,3.140625 0.65625,0.835937 1.546875,1.464844 2.671875,1.890625 1.125,0.429687 2.609375,0.640625 4.453125,0.640625 z m 0,0"
           style="fill:#ffffff;stroke:none;stroke-width:0.441735" />
      </g>
      <g
         style="fill:#ffffff;stroke-width:0.441735"
         id="use5965"
         transform="translate(231.22803,802.00452)">
        <path
           id="path8649"
           d="m 50.40625,-43.75 c 0,1.136719 -0.15625,2.210937 -0.46875,3.21875 -0.304687,1 -0.867187,1.96875 -1.6875,2.90625 l -20.28125,22.3125 0.40625,0.59375 21.015625,-0.01563 c 0.757813,-0.0078 1.289063,0.105469 1.59375,0.34375 0.3125,0.230469 0.46875,0.777344 0.46875,1.640625 l 0.01563,10.5 c 0,0.9375 -0.121094,1.542969 -0.359375,1.8125 -0.242187,0.261719 -0.773437,0.3984375 -1.59375,0.40625 L 8,0 C 6.289063,0 4.957031,-0.378906 4,-1.140625 3.039063,-1.910156 2.5625,-3.0625 2.5625,-4.59375 V -8.703125 C 2.550781,-9.765625 2.695313,-10.8125 3,-11.84375 c 0.3125,-1.039063 1.050781,-2.191406 2.21875,-3.453125 l 20.375,-22.515625 -0.40625,-0.5 -18.046875,0.01563 c -0.886719,0 -1.433594,-0.113281 -1.640625,-0.34375 -0.199219,-0.238281 -0.296875,-0.789063 -0.296875,-1.65625 L 5.1875,-50.40625 c 0,-0.863281 0.164063,-1.425781 0.5,-1.6875 C 6.03125,-52.363281 6.546875,-52.5 7.234375,-52.5 l 37.921875,-0.03125 c 1.570313,0 2.835938,0.214844 3.796875,0.640625 0.957031,0.429687 1.441406,1.511719 1.453125,3.25 z m 0,0"
           style="fill:#ffffff;stroke:none;stroke-width:0.441735" />
      </g>
      <g
         style="fill:#ffffff;stroke-width:0.441735"
         id="use5967"
         transform="translate(285.76865,801.96198)">
        <path
           id="path8653"
           d="m 60.265625,-26.546875 c 0,3.605469 -0.496094,7.074219 -1.484375,10.40625 -0.992187,3.335937 -2.59375,6.28125 -4.8125,8.84375 -2.21875,2.5625 -5.125,4.601562 -8.71875,6.109375 -3.585937,1.5 -7.96875,2.25 -13.15625,2.25 C 28.125,1.070313 24.070313,0.757813 19.9375,0.125 15.800781,-0.5 12.128906,-1.570313 8.921875,-3.09375 7.828125,-3.632813 7.175781,-4.203125 6.96875,-4.796875 6.757813,-5.398438 6.65625,-6.101563 6.65625,-6.90625 l -0.0625,-63.890625 c 0,-0.863281 0.171875,-1.445313 0.515625,-1.75 C 7.453125,-72.847656 8.132813,-73 9.15625,-73 l 13.546875,-0.01563 c 0.945313,0 1.609375,0.136719 1.984375,0.40625 0.382813,0.261719 0.578125,0.859375 0.578125,1.796875 l 0.01563,18 c 1.425781,-0.40625 3.0625,-0.722656 4.90625,-0.953125 1.851563,-0.238281 3.90625,-0.359375 6.15625,-0.359375 4.300781,0 7.972656,0.730469 11.015625,2.1875 3.039063,1.460937 5.503906,3.4375 7.390625,5.9375 1.882813,2.5 3.269531,5.4375 4.15625,8.8125 0.894531,3.367187 1.347656,6.914062 1.359375,10.640625 z m -19.375,0.01563 c -0.01172,-4.195313 -0.824219,-7.257813 -2.4375,-9.1875 -1.605469,-1.9375 -3.839844,-2.90625 -6.703125,-2.90625 -0.617187,0 -1.609375,0.07031 -2.984375,0.203125 -1.367187,0.136719 -2.523437,0.371094 -3.46875,0.703125 l 0.01563,22.703125 c 0.945313,0.273437 1.984375,0.453125 3.109375,0.546875 1.132813,0.09375 1.972656,0.140625 2.515625,0.140625 3.144531,0 5.585938,-0.929688 7.328125,-2.796875 1.75,-1.875 2.625,-5.007813 2.625,-9.40625 z m 0,0"
           style="fill:#ffffff;stroke:none;stroke-width:0.441735" />
      </g>
      <g
         style="fill:#ffffff;stroke-width:0.441735"
         id="use5969"
         transform="translate(350.66382,801.91132)">
        <path
           id="path8657"
           d="m 44.46875,-13.734375 -20.1875,0.01563 -3.375,11.5 c -0.273437,0.742187 -0.59375,1.292969 -0.96875,1.65625 -0.375,0.367187 -1.148437,0.546875 -2.3125,0.546875 L 2.5625,0 C 1.875,0 1.445313,-0.179688 1.28125,-0.546875 1.113281,-0.910156 1.097656,-1.363281 1.234375,-1.90625 L 21.375,-63.8125 c 0.894531,-2.664063 1.988281,-4.378906 3.28125,-5.140625 1.289063,-0.769531 3.097656,-1.160156 5.421875,-1.171875 H 38.375 c 1.226563,0 2.304688,0.05469 3.234375,0.15625 0.925781,0.09375 1.75,0.34375 2.46875,0.75 0.71875,0.398437 1.367188,1.011719 1.953125,1.84375 0.582031,0.835937 1.113281,1.980469 1.59375,3.4375 l 20.234375,61.984375 c 0.144531,0.335937 0.164063,0.734375 0.0625,1.203125 -0.105469,0.46875 -0.570312,0.703125 -1.390625,0.703125 H 51.046875 C 50.234375,-0.0351563 49.550781,-0.128906 49,-0.328125 48.457031,-0.523438 48.082031,-0.992188 47.875,-1.734375 Z m -15.875,-14.78125 11.671875,-0.01563 L 38.3125,-36.32813 35.015625,-50.73438 H 34.1875 l -3.46875,14.703125 z m 0,0"
           style="fill:#ffffff;stroke:none;stroke-width:0.441735" />
      </g>
      <g
         style="fill:#ffffff;stroke-width:0.441735"
         id="use5971"
         transform="translate(419.7623,801.85742)">
        <path
           id="path8661"
           d="m 28.609375,-2.109375 c 0,0.792969 -0.121094,1.339844 -0.359375,1.640625 -0.242187,0.304687 -0.945312,0.453125 -2.109375,0.453125 h -14.5625 C 10.003906,-0.00390625 9.21875,-0.695313 9.21875,-2.09375 l -0.046875,-65.8125 c -0.011719,-1.394531 0.769531,-2.097656 2.34375,-2.109375 h 14.5625 c 1.164063,0 1.867188,0.152344 2.109375,0.453125 0.238281,0.304687 0.363281,0.851562 0.375,1.640625 z m 0,0"
           style="fill:#ffffff;stroke:none;stroke-width:0.441735" />
      </g>
    </g>
    <text
       inkscape:transform-center-y="3.3349096"
       inkscape:transform-center-x="-10.822163"
       id="score_left-7"
       y="-820.73047"
       x="618.84131"
       style="font-style:normal;font-weight:normal;font-size:17.6237px;line-height:1.25;font-family:sans-serif;letter-spacing:0px;word-spacing:0px;fill:#000000;fill-opacity:1;stroke:none;stroke-width:0.264583"
       xml:space="preserve"><tspan
         style="font-style:normal;font-variant:normal;font-weight:bold;font-stretch:normal;font-size:84.5942px;font-family:Arial;-inkscape-font-specification:'Arial Bold';text-align:end;text-anchor:end;fill:#ffffff;fill-opacity:1;stroke-width:0.264583"
         y="-820.73047"
         x="618.84131"
         id="tspan853-7-8-3"
         sodipodi:role="line">:</tspan></text>
    <g
       style="stroke-width:3.60114"
       transform="matrix(0.09796309,0,0,0.09796309,1044.36,-358.81972)"
       id="surface2719515">
      <path
         style="fill:#211e1e;fill-opacity:1;fill-rule:evenodd;stroke:none;stroke-width:3.60114"
         d="m 429.03906,756.57422 c 0,6.60937 0.52344,8.71094 -6.82422,8.71094 -0.94531,0 -2.62109,-0.11329 -2.62109,1.2539 0,1.16016 0.83594,1.36328 1.78125,1.36328 3.98828,0 7.97656,-0.41406 11.96484,-0.41406 3.98828,0 7.76953,0.41406 11.75391,0.41406 0.94531,0 1.78516,-0.20312 1.78516,-1.36328 0,-1.36719 -1.78516,-1.2539 -2.72657,-1.2539 -7.24609,-0.11329 -6.82422,-2 -6.82422,-8.71094 v -19.52735 c 0,-3.5664 1.05079,-3.5664 5.25,-3.5664 3.14844,0 8.60547,0 12.69532,0.9414 2.3125,0.52344 3.15234,3.67579 3.67578,6.72266 0.10547,0.625 0.42187,1.78516 1.36328,1.78516 0.52734,0 1.15625,-0.21094 1.15625,-1.89453 -0.10547,-3.35547 -0.31641,-6.50391 -0.52344,-9.86329 0.20703,-2.9414 0.41797,-6.08984 0.52344,-9.02734 0,-0.83984 -0.62891,-1.05078 -1.15625,-1.05078 -0.94141,0 -1.25781,1.16016 -1.36328,1.78516 -0.52344,3.03906 -1.04688,6.92578 -3.67578,7.24218 -4.08985,0.52344 -9.54688,0.42188 -12.69532,0.42188 -4.30468,0 -5.25,0 -5.25,-4.9375 v -14.90235 c 0,-1.36328 -0.21093,-4.30078 1.36329,-5.03515 1.68359,-0.73828 7.13671,-0.73828 8.92187,-0.73828 9.34375,0 15.64063,0.10937 18.47266,10.07812 0.21093,0.73438 0.63281,2.20703 1.67968,2.20703 1.57422,0 1.04688,-3.25781 1.04688,-4.09765 v -7.33985 c 0,-1.57422 0.42187,-3.67578 -1.67578,-3.67578 -12.07031,0 -24.03516,0.41406 -36,0.41406 -3.35938,0 -6.50781,-0.41406 -9.86719,-0.41406 -0.94141,0 -1.78516,0.3125 -1.78516,1.36328 0,1.36328 1.6836,1.46485 2.73047,1.46485 7.24219,0 6.82422,1.88672 6.82422,8.39843 z m 0,0"
         id="path8913" />
      <path
         style="fill:#211e1e;fill-opacity:1;fill-rule:evenodd;stroke:none;stroke-width:3.60114"
         d="m 490.72266,745.76172 c -5.875,2.72265 -15.53125,7.23828 -15.53125,14.6875 0,5.25 4.93359,8.29687 9.86718,8.29687 9.12891,0 15.94922,-7.97656 16.89844,-7.97656 1.46875,0 1.99219,7.34375 7.13672,7.34375 2.72656,0 5.35156,-1.57422 7.44922,-3.03906 0.73437,-0.63672 2.51953,-2.10156 2.51953,-3.25391 0,-0.42187 -0.3125,-0.84375 -0.73438,-0.84375 -0.94531,0 -2.09765,2.625 -4.72265,2.625 -3.77735,0 -3.67188,-6.08984 -3.67188,-8.39453 v -24.77344 c 0,-2.82812 0.41797,-5.45312 -2.10156,-7.65625 -2.41406,-2.09765 -6.29687,-2.73437 -9.55078,-2.73437 -6.71875,0 -13.85547,2.83594 -18.78906,7.24609 -1.99219,1.67969 -4.40625,4.71875 -4.40625,7.45313 0,1.05078 0.52734,1.2539 1.36328,1.2539 1.26172,0 3.46484,-0.83984 4.51562,-1.36328 1.67578,-0.73437 2.20313,-2.19922 2.9375,-3.77734 2.41407,-5.35156 5.66797,-8.8125 12.07032,-8.8125 6.50781,0 6.71875,4.30078 6.71875,9.4414 v 4.6211 c 0,3.98828 -0.10547,4.08984 -3.88282,5.8789 z m 10.07812,-2.73047 c 0.31641,-0.10156 0.83984,-0.42188 1.15625,-0.42188 1.04688,0 0.73438,2.52344 0.73438,2.9375 v 6.30079 c 0,3.46093 -0.10547,5.25 -2.625,7.875 -2.51954,2.51562 -6.08594,4.19921 -9.76172,4.19921 -3.88282,0 -7.24219,-2.10156 -7.24219,-6.19921 0,-5.03907 4.09375,-7.76563 8.1875,-9.86329 z m 0,0"
         id="path8915" />
      <path
         style="fill:#211e1e;fill-opacity:1;fill-rule:evenodd;stroke:none;stroke-width:3.60114"
         d="m 538.90234,750.79687 c 0,-3.98828 0.10547,-3.67578 3.25391,-6.08593 0.52344,-0.41797 1.57422,-1.46485 2.41406,-1.46485 1.05078,0 2.51953,2.19922 3.04297,2.9336 l 9.76172,12.80468 c 0.73437,0.94141 2.51953,3.15235 2.51953,4.41016 0,2.20313 -2.51953,1.99219 -4.09375,1.99219 -0.83984,0 -1.78516,0.625 -1.78516,1.67578 0,0.94922 0.94532,0.83984 1.67969,0.83984 3.25391,0 6.60938,-0.41406 9.75781,-0.41406 3.35938,0 6.92969,0.41406 10.28907,0.41406 0.73437,0 1.67968,0.10938 1.67968,-0.9414 0,-1.15235 -1.26171,-1.57422 -2.20312,-1.57422 -3.88672,0 -5.35547,-2.52344 -7.66406,-5.35156 l -15.84766,-20.15235 c -0.41797,-0.42578 -0.73437,-0.73828 -0.73437,-1.36328 0,-0.94922 1.99218,-2.3125 2.62109,-2.83594 l 7.97656,-6.30078 c 4.09375,-3.14062 6.71875,-5.66406 12.07422,-5.875 0.94141,0 2.09766,-0.10156 2.09766,-1.2539 0,-1.05079 -0.94532,-0.84766 -1.78516,-0.84766 h -18.47266 c -0.83984,0 -2.30859,-0.20313 -2.30859,0.94922 0,1.78906 2.83203,1.36328 3.98828,1.46484 1.15625,0 3.35938,0 3.35938,1.6836 0,1.57421 -3.14844,3.99218 -4.30469,4.92968 l -15.53125,12.28516 c -0.21094,0.21094 -0.84375,0.73047 -1.15625,0.73047 -0.62891,0 -0.62891,-1.67969 -0.62891,-2.20313 v -45.65625 c 0,-0.83984 0.10547,-1.67578 -0.94531,-1.67578 -0.73437,0 -1.67969,0.73438 -2.20312,1.15235 -2.51954,1.68359 -6.50782,2.72656 -9.44532,3.25 -0.6289,0.10937 -1.46875,0.42187 -1.46875,1.16015 0,1.36328 1.78125,1.05078 2.72657,1.05078 5.03906,0 4.09375,4.61328 4.09375,8.5 v 47.75782 c 0,4.51171 0.94531,8.07812 -4.72266,8.60156 -1.15625,0.10156 -2.9375,-0.10156 -2.9375,1.47265 0,0.83985 0.73047,1.04297 1.46875,1.04297 3.25391,0 6.61328,-0.41406 9.96875,-0.41406 3.14844,0 6.50781,0.41406 9.86719,0.41406 0.73437,0 1.25781,-0.3125 1.25781,-1.15234 0,-1.36328 -1.89063,-1.26172 -2.94141,-1.36328 -5.66406,-0.52344 -4.71875,-4.08985 -4.71875,-8.60156 z m 0,0"
         id="path8917" />
      <path
         style="fill:#211e1e;fill-opacity:1;fill-rule:evenodd;stroke:none;stroke-width:3.60114"
         d="m 627.03906,724.03125 c 0,-1.15234 0.52735,-2.625 -1.15234,-2.625 h -12.17578 c -0.83985,0 -1.46875,-0.20313 -1.46875,0.73828 0,1.36328 1.99218,1.36328 2.9414,1.36328 5.66407,0 4.61328,3.98828 4.61328,8.39844 v 20.05078 c 0,2.9375 0.42188,5.35156 -1.78515,7.76563 -2.9375,3.25 -6.71485,4.71484 -11.23047,4.71484 -3.88281,0 -8.39453,-1.36328 -10.49609,-4.82422 -1.88672,-3.03906 -1.88672,-8.28906 -1.88672,-11.75391 v -22.66796 c 0,-1.57422 0.52343,-3.78516 -1.67969,-3.78516 h -11.75391 c -0.83984,0 -1.36328,-0.20313 -1.36328,0.63672 0,1.46484 1.88672,1.46484 2.83203,1.46484 5.77344,0 4.72266,3.98828 4.72266,8.39844 v 15.95312 c 0,5.14063 -0.21094,10.49219 3.15234,14.80079 3.03907,3.98828 7.23828,6.08593 12.37891,6.08593 9.55469,0 14.48828,-7.34765 16.0625,-7.34765 1.36328,0 0.83594,3.77343 0.83594,4.30078 v 2.52344 c 0,0.52343 0,0.83984 0.52734,0.83984 0.3125,0 0.94141,-0.52344 1.15234,-0.62891 3.04688,-2.3125 6.82422,-3.46875 10.5,-4.51172 0.62891,-0.21093 2.20313,-0.42578 2.20313,-1.37109 0,-0.73047 -0.73828,-0.83984 -1.36719,-0.83984 l -1.36328,0.10937 c -5.03906,0.41797 -4.19922,-2.83594 -4.19922,-6.92578 z m 0,0"
         id="path8919" />
      <path
         style="fill:#211e1e;fill-opacity:1;fill-rule:evenodd;stroke:none;stroke-width:3.60114"
         d="m 654.41016,695.58984 c 0,-0.83984 0.10546,-1.67578 -0.94141,-1.67578 -0.73828,0 -1.67969,0.73438 -2.20703,1.15235 -2.51953,1.68359 -6.50391,2.72656 -9.44531,3.25 -0.62891,0.10937 -1.46875,0.42187 -1.46875,1.16015 0,1.36328 1.78515,1.05078 2.73046,1.05078 5.03516,0 4.09375,4.61328 4.09375,8.5 v 47.75782 c 0,4.51171 0.94141,8.07812 -4.72656,8.60156 -1.15234,0.10156 -2.9375,-0.10156 -2.9375,1.47265 0,0.83985 0.73828,1.04297 1.46875,1.04297 3.25391,0 6.61328,-0.41406 9.97266,-0.41406 3.14453,0 6.5039,0.41406 9.86719,0.41406 0.73046,0 1.25781,-0.3125 1.25781,-1.15234 0,-1.36328 -1.89063,-1.26172 -2.9375,-1.36328 -5.66797,-0.52344 -4.72656,-4.08985 -4.72656,-8.60156 z m 0,0"
         id="path8921" />
      <path
         style="fill:#211e1e;fill-opacity:1;fill-rule:evenodd;stroke:none;stroke-width:3.60114"
         d="m 678.94922,725.91797 c 0,-2.9375 1.46875,-2.30078 3.88281,-2.30078 h 5.87891 c 2.41406,0 3.25,0.52734 3.25,-1.6836 0,-0.83984 0,-1.46484 -0.94141,-1.46484 h -10.39062 c -1.46875,0 -1.67969,-0.73828 -1.67969,-2.10156 v -7.45313 c 0,-0.625 -0.10547,-1.25781 -0.83985,-1.25781 -0.52343,0 -0.83984,0.52344 -1.05078,0.94531 -2.41406,5.03906 -5.45703,7.66406 -9.96875,10.60156 -0.52343,0.41407 -1.26172,0.83985 -1.26172,1.57422 0,1.25391 2.73047,0.83985 3.25391,0.83985 1.99609,0 2.625,-0.32422 2.625,1.88672 v 26.96875 c 0,4.20312 -0.41797,9.55078 2.3125,13.01562 1.78125,2.21094 4.71875,3.25781 7.55469,3.25781 3.67187,0 7.13672,-1.57422 9.76172,-3.98437 0.73047,-0.52735 2.09765,-1.89844 2.09765,-2.94141 0,-0.32031 -0.3164,-0.73437 -0.73437,-0.73437 -0.83985,0 -3.67578,3.67578 -7.5586,3.67578 -6.29687,0 -6.1914,-7.77735 -6.1914,-12.28906 z m 0,0"
         id="path8923" />
      <path
         style="fill:#211e1e;fill-opacity:1;fill-rule:evenodd;stroke:none;stroke-width:3.60114"
         d="m 741.37891,738.93359 c 1.04687,0 1.25781,-0.9414 1.25781,-1.77734 0,-3.46484 -1.57422,-7.97656 -3.67188,-10.60156 -3.67578,-4.51172 -9.44531,-6.51172 -15.11328,-6.51172 -7.13672,0 -13.64453,2.41406 -18.89453,7.03515 -5.5625,4.82813 -7.55469,10.39063 -7.55469,17.52735 0,13.11719 10.17969,24.14062 23.92969,24.14062 6.50781,0 11.65234,-1.68359 16.58203,-5.88281 0.73438,-0.625 4.09375,-3.45312 4.09375,-4.71875 0,-0.42187 -0.3164,-0.83594 -0.83594,-0.83594 -1.36718,0 -5.25,6.81641 -15.53906,6.81641 -12.69531,0 -20.35937,-10.17578 -20.35937,-21.92969 0,-3.46484 1.05078,-3.26172 4.30078,-3.26172 z m -31.69532,-2.51562 c -1.15625,0 -3.57031,0.3164 -3.57031,-1.36328 0,-1.67578 1.78516,-4.9336 2.625,-6.08594 3.25391,-4.41406 8.28906,-7.03516 13.64453,-7.03516 3.35938,0 6.82031,0.84375 9.12891,3.25782 1.47265,1.57421 2.73047,3.98828 2.73047,6.1914 0,2.51563 -1.57422,3.67188 -3.88282,4.19922 -3.04296,0.73438 -8.92187,0.83594 -12.17578,0.83594 z m 0,0"
         id="path8925" />
      <path
         style="fill:#211e1e;fill-opacity:1;fill-rule:evenodd;stroke:none;stroke-width:3.60114"
         d="m 760.80078,725.91797 c 0,-2.9375 1.46875,-2.30078 3.88672,-2.30078 h 5.875 c 2.41406,0 3.25391,0.52734 3.25391,-1.6836 0,-0.83984 0,-1.46484 -0.94141,-1.46484 h -10.39453 c -1.46875,0 -1.67969,-0.73828 -1.67969,-2.10156 v -7.45313 c 0,-0.625 -0.10156,-1.25781 -0.83984,-1.25781 -0.52344,0 -0.83985,0.52344 -1.05078,0.94531 -2.41016,5.03906 -5.45704,7.66406 -9.96875,10.60156 -0.52344,0.41407 -1.25782,0.83985 -1.25782,1.57422 0,1.25391 2.72657,0.83985 3.25391,0.83985 1.99219,0 2.62109,-0.32422 2.62109,1.88672 v 26.96875 c 0,4.20312 -0.41797,9.55078 2.3086,13.01562 1.78515,2.21094 4.72265,3.25781 7.55859,3.25781 3.67188,0 7.13672,-1.57422 9.76172,-3.98437 0.73437,-0.52735 2.10156,-1.89844 2.10156,-2.94141 0,-0.32031 -0.3164,-0.73437 -0.73828,-0.73437 -0.83984,0 -3.67187,3.67578 -7.55469,3.67578 -6.29687,0 -6.19531,-7.77735 -6.19531,-12.28906 z m 0,0"
         id="path8927" />
      <path
         style="fill:#211e1e;fill-opacity:1;fill-rule:evenodd;stroke:none;stroke-width:3.60114"
         d="m 795,745.76172 c -5.87891,2.72265 -15.53516,7.23828 -15.53516,14.6875 0,5.25 4.9336,8.29687 9.86719,8.29687 9.12891,0 15.94922,-7.97656 16.89453,-7.97656 1.46875,0 1.9961,7.34375 7.13672,7.34375 2.73047,0 5.35547,-1.57422 7.45313,-3.03906 0.73437,-0.63672 2.51953,-2.10156 2.51953,-3.25391 0,-0.42187 -0.31641,-0.84375 -0.73438,-0.84375 -0.9414,0 -2.09765,2.625 -4.72656,2.625 -3.77344,0 -3.66797,-6.08984 -3.66797,-8.39453 v -24.77344 c 0,-2.82812 0.41797,-5.45312 -2.10156,-7.65625 -2.41406,-2.09765 -6.29688,-2.73437 -9.55078,-2.73437 -6.71875,0 -13.85547,2.83594 -18.78516,7.24609 -1.99609,1.67969 -4.41016,4.71875 -4.41016,7.45313 0,1.05078 0.52344,1.2539 1.36719,1.2539 1.25781,0 3.46094,-0.83984 4.51172,-1.36328 1.67578,-0.73437 2.20313,-2.19922 2.9375,-3.77734 2.41406,-5.35156 5.66797,-8.8125 12.07031,-8.8125 6.50782,0 6.71485,4.30078 6.71485,9.4414 v 4.6211 c 0,3.98828 -0.10157,4.08984 -3.88282,5.8789 z m 10.07422,-2.73047 c 0.3164,-0.10156 0.83984,-0.42188 1.15234,-0.42188 1.05078,0 0.73438,2.52344 0.73438,2.9375 v 6.30079 c 0,3.46093 -0.10157,5.25 -2.625,7.875 -2.51563,2.51562 -6.08594,4.19921 -9.75782,4.19921 -3.88281,0 -7.24218,-2.10156 -7.24218,-6.19921 0,-5.03907 4.09375,-7.76563 8.1875,-9.86329 z m 0,0"
         id="path8929" />
      <path
         style="fill:#b82323;fill-opacity:1;fill-rule:evenodd;stroke:none;stroke-width:3.60114"
         d="m 864.58203,760.13672 c -2.83594,0 -9.76172,2.10156 -9.76172,5.5625 0,1.47265 0.83985,2.10156 2.3086,2.10156 3.2539,0 6.71875,-5.77734 9.96875,-5.77734 2.20703,0 5.14453,1.6875 8.71093,3.36328 3.46875,1.67578 7.5625,3.35937 11.65235,3.35937 4.09375,0 8.60937,-1.37109 11.4414,-4.41015 1.99219,-2.09766 3.46485,-5.35157 3.46485,-8.1875 0,-0.94141 -0.31641,-4.30078 -1.78516,-4.30078 -0.41797,0 -0.83984,0.3125 -0.83984,0.73437 0,0.62891 0.52343,1.67969 0.52343,2.94141 0,3.98828 -3.77734,6.08593 -7.44921,6.08593 -1.6836,0 -3.35938,-0.42187 -5.03907,-0.83984 -4.30468,-0.94922 -8.1875,-1.78516 -12.69922,-1.78516 -2.625,0 -5.24609,0.31641 -7.87109,1.15235 l 15.84766,-13.22656 16.37109,-14.69141 c 3.46484,-3.03906 4.09375,-3.35156 8.08203,-5.77344 1.36719,-0.83984 6.08594,-3.15234 6.08594,-5.35156 0,-1.15234 -1.25781,-1.57422 -2.30859,-1.57422 -3.04297,0 -6.19141,4.51172 -8.1836,6.51172 l -2.41406,0.21094 c -4.51172,0.41406 -8.29297,-1.6875 -11.86328,-3.46485 -3.46094,-1.68359 -6.71875,-3.35937 -10.28516,-3.35937 -7.44922,0 -13.01172,5.35156 -13.01172,12.80078 0,0.73828 -0.10547,3.14844 1.25782,3.14844 0.83984,0 0.6289,-1.25782 0.6289,-1.78516 -0.20703,-4.61328 2.625,-6.81641 7.14063,-6.81641 2.51562,0 4.82422,0.62891 7.34375,1.25391 3.46484,0.84766 7.03125,1.57422 10.60156,1.57422 3.14844,0 6.19141,-0.625 9.12891,-1.57422 -10.38672,7.03516 -20.25391,14.69922 -28.96875,23.82813 l -4.61329,4.82812 z m 0,0"
         id="path8931" />
      <path
         style="fill:#b82323;fill-opacity:1;fill-rule:evenodd;stroke:none;stroke-width:3.60114"
         d="m 959.97656,723.09375 c -2.20312,-2.83594 -4.51562,-3.67578 -8.08594,-3.67578 -9.54687,0 -18.99609,5.97656 -25.39843,12.69922 -5.97657,6.30078 -12.06641,16.89453 -12.06641,25.8164 0,5.14063 2.41406,10.8125 8.28906,10.8125 12.38672,0 26.44922,-20.05078 32.32813,-29.70312 l -6.40235,20.77734 c -0.52343,1.78906 -1.15625,3.89063 -1.15625,5.87891 0,1.78906 0.94532,3.04687 2.83594,3.04687 4.19531,0 9.86328,-4.93359 12.48828,-7.76953 1.26172,-1.36328 5.5625,-6.8164 5.5625,-8.70703 0,-0.42187 -0.3164,-0.84766 -0.73437,-0.84766 -0.73438,0 -1.46875,1.3711 -1.78516,1.89844 -1.25781,1.98828 -6.1914,8.60156 -8.8164,8.60156 -0.83594,0 -1.05079,-0.73437 -1.05079,-1.57421 0,-0.9375 0.63282,-2.625 0.83985,-3.46485 l 10.8125,-35.47656 c 0.10547,-0.41406 0.52344,-1.56641 0.52344,-2.09375 0,-1.46875 -2.9375,-0.94531 -3.56641,-0.94531 -3.46484,0 -3.25781,0.52343 -4.30469,3.77734 z m -1.57812,3.77344 c 0,4.82812 -8.60547,16.79297 -11.54297,20.46484 -3.67188,4.625 -13.01563,15.85156 -19.41797,15.85156 -3.35938,0 -4.82813,-3.46093 -4.82813,-6.39843 0,-6.61719 5.5625,-17.21485 9.55469,-22.25391 4.40625,-5.77344 11.85547,-13.125 19.51953,-13.125 3.56641,0 6.71485,1.57422 6.71485,5.46094"
         id="path8933" />
      <path
         style="fill:#b82323;fill-opacity:1;fill-rule:evenodd;stroke:none;stroke-width:3.60114"
         d="m 1011.3984,748.07031 1.3633,-0.21094 c 11.125,-1.67968 34.5313,-3.2539 34.5313,-18.47656 0,-6.60547 -6.2969,-9.96484 -12.1758,-9.96484 -16.2656,0 -32.1133,16.6875 -32.1133,32.85156 0,9.02734 5.6641,16.47656 15.1094,16.47656 7.664,0 14.8008,-4.62109 19.8398,-10.18359 0.5235,-0.62891 2.7305,-3.14844 2.7305,-4.09375 0,-0.51953 -0.2109,-0.73438 -0.7344,-0.73438 -0.5312,0 -0.8398,0.42579 -1.1562,0.83985 -3.4649,4.9375 -10.3907,9.55078 -16.4766,9.55078 -7.4531,0 -11.1289,-5.14063 -11.1289,-12.06641 v -2.41406 z m 0.4219,-2.09765 c 2.4141,-9.86719 10.2852,-24.56641 21.9336,-24.56641 3.8867,0 6.1953,2.10156 6.1953,5.98828 0,3.46094 -1.4726,7.02734 -3.5703,9.76172 -4.8281,6.29297 -16.8984,8.1875 -24.5586,8.81641"
         id="path8935" />
      <path
         style="fill:#b82323;fill-opacity:1;fill-rule:evenodd;stroke:none;stroke-width:3.60114"
         d="m 1052.2266,755.41406 c -0.8399,2.73047 -1.8868,6.29688 -1.8868,9.23828 0,2.41016 0.5235,4.09375 3.25,4.09375 4.4102,0 10.3907,-6.08593 12.8086,-9.13281 1.0469,-1.26172 4.4063,-5.56641 4.4063,-7.45312 0,-0.41407 -0.1055,-0.73829 -0.5234,-0.73829 -0.8438,0 -1.2618,0.84766 -1.5743,1.3711 -1.2617,2.20312 -6.6132,9.55469 -9.1328,9.55469 -1.0508,0 -1.4726,-0.94922 -1.4726,-1.78907 0,-1.47265 0.6328,-2.9375 1.0547,-4.19922 l 17.9453,-58.5664 c 0.1054,-0.41797 0.6328,-1.99219 0.6328,-2.51563 0,-0.52734 -0.3164,-0.94922 -0.8438,-0.94922 -0.3125,0 -0.7343,0.32032 -0.9414,0.42188 -3.4648,2.625 -7.875,3.78125 -12.0703,3.98828 -1.0508,0 -3.1523,-0.10156 -3.1523,1.36328 0,0.73828 0.5273,1.16016 1.2617,1.16016 l 1.6797,-0.10938 c 1.7851,-0.10156 4.0937,0.21485 4.0937,2.625 0,0.94141 -0.7344,3.36328 -1.0508,4.30078 z m 0,0"
         id="path8937" />
      <path
         style="fill:#b82323;fill-opacity:1;fill-rule:evenodd;stroke:none;stroke-width:3.60114"
         d="m 1084.9648,748.07031 1.3633,-0.21094 c 11.125,-1.67968 34.5313,-3.2539 34.5313,-18.47656 0,-6.60547 -6.2969,-9.96484 -12.1758,-9.96484 -16.2695,0 -32.1172,16.6875 -32.1172,32.85156 0,9.02734 5.668,16.47656 15.1133,16.47656 7.6641,0 14.7969,-4.62109 19.8359,-10.18359 0.5274,-0.62891 2.7305,-3.14844 2.7305,-4.09375 0,-0.51953 -0.2109,-0.73438 -0.7344,-0.73438 -0.5273,0 -0.8398,0.42579 -1.1562,0.83985 -3.4649,4.9375 -10.3907,9.55078 -16.4766,9.55078 -7.4531,0 -11.125,-5.14063 -11.125,-12.06641 v -2.41406 z m 0.418,-2.09765 c 2.4141,-9.86719 10.2891,-24.56641 21.9375,-24.56641 3.8828,0 6.1914,2.10156 6.1914,5.98828 0,3.46094 -1.4687,7.02734 -3.5664,9.76172 -4.8281,6.29297 -16.8984,8.1875 -24.5625,8.81641"
         id="path8939" />
      <path
         style="fill:#b82323;fill-opacity:1;fill-rule:evenodd;stroke:none;stroke-width:3.60114"
         d="m 1135.6602,748.80859 c 3.25,-0.63672 4.8242,2.72266 5.875,5.14063 3.0429,6.92187 6.1914,14.79687 15.0078,14.79687 5.5625,0 10.7031,-3.67187 10.7031,-9.44531 0,-2.94141 -1.5703,-5.77734 -4.8281,-5.77734 -1.5703,0 -2.6211,1.37109 -2.6211,2.83593 0,3.77735 4.5117,2.20313 4.5117,5.77735 0,2.41015 -2.3086,3.98437 -4.5117,3.98437 -4.6172,0 -7.0313,-6.08593 -8.711,-9.54687 -1.5703,-3.36328 -3.2539,-7.03906 -6.9257,-8.40235 6.1914,-0.9414 12.9062,-1.88671 18.3671,-5.14062 5.1407,-3.04688 9.8633,-8.08594 9.8633,-14.375 0,-4.9375 -3.7773,-9.23828 -8.8164,-9.23828 -10.2851,0 -22.5664,15.73828 -27.1797,24.13672 l 13.8516,-45.33985 c 0.2109,-0.52343 0.8398,-2.52343 0.8398,-3.14843 0,-0.41797 -0.3164,-0.73829 -0.7343,-0.73829 -0.3164,0 -0.836,0.21094 -1.1563,0.32032 -4.0898,2.41406 -7.3476,2.61718 -11.9648,2.61718 -0.836,0 -2.4141,-0.10156 -2.4141,1.05079 0,1.16015 1.0547,1.05078 1.8906,1.05078 1.8907,0.10937 4.6172,0.32031 4.6172,2.83593 0,1.47266 -0.9414,4.41016 -1.3633,5.875 l -17.0039,55.84375 c -0.207,0.625 -0.6289,1.88672 -0.6289,2.51563 0,1.46484 2.7305,1.05078 3.4649,1.05078 4.0898,0 3.2539,-0.94922 4.7226,-4.82812 z m 0.9453,-1.89843 c 3.7773,-7.13672 15.0078,-23.19141 23.8203,-23.19141 2.8359,0 4.6172,2.10156 4.6172,4.82812 0,5.03516 -3.8789,9.55079 -7.7657,12.48829 -5.039,3.78515 -11.8593,5.875 -18.1601,5.875 z m 0,0"
         id="path8941" />
      <path
         style="fill:#b82323;fill-opacity:1;fill-rule:evenodd;stroke:none;stroke-width:3.60114"
         d="m 1194.4219,723.71875 h 8.082 c 0.6328,0 2.0977,0.10156 2.4141,-0.625 0.3164,-0.73828 0.4218,-0.94922 0.4218,-1.47656 0,-0.9375 -2.1015,-0.625 -2.3085,-0.625 h -7.8711 l 2.7304,-8.71485 c 0.2071,-0.625 0.625,-1.98828 0.625,-2.72265 0,-1.36719 -2.6211,-0.94922 -3.3554,-0.94922 -1.2579,0 -3.0469,-0.31641 -3.6758,1.14844 l -3.461,11.23828 h -6.3007 c -1.5743,0 -2.8321,-0.10938 -2.8321,1.88672 0,1.05078 1.8907,0.83984 2.4141,0.83984 h 5.9805 l -9.3399,30.44141 c -0.8398,2.625 -1.9922,6.1875 -1.9922,9.02343 0,2.41407 0.9414,5.5625 3.8828,5.5625 4.8282,0 11.336,-7.34765 13.9571,-10.91406 0.6289,-0.84766 3.1484,-4.30859 3.1484,-5.46094 0,-0.41406 -0.3125,-0.83984 -0.8359,-0.83984 -0.5274,0 -0.8438,0.73828 -1.1563,1.26172 -0.4179,0.73047 -1.4687,2.10156 -1.8906,2.83203 -1.4688,1.99609 -5.3516,7.03516 -7.8711,7.03516 -1.2617,0 -1.6797,-1.16016 -1.6797,-2.21094 0,-1.36328 0.8399,-3.77344 1.2617,-5.03516 z m 0,0"
         id="path8943" />
      <path
         style="fill:#b82323;fill-opacity:1;fill-rule:evenodd;stroke:none;stroke-width:3.60114"
         d="m 1208.5781,763.18359 c -0.1054,0.41797 -0.7343,2.41407 -0.7343,2.9375 0,1.57813 1.996,1.36719 2.9414,1.36719 4.1953,0 3.8789,-0.83984 5.039,-4.72656 1.9922,-6.71485 8.8125,-19.625 12.6953,-25.71485 1.1563,-1.89062 7.5586,-11.33203 10.3907,-11.33203 2.8359,0 -0.1016,5.14063 5.1445,5.14063 3.1484,0 4.8281,-3.35938 4.8281,-6.19141 0,-3.25781 -2.1015,-5.24609 -5.2461,-5.24609 -9.0273,0 -19.3164,21.20312 -23.1953,28.1289 l 4.5117,-14.80078 c 0.7344,-2.3125 1.4688,-4.61718 1.4688,-7.14062 0,-2.3125 -0.7344,-6.1875 -3.8828,-6.1875 -3.4649,0 -8.293,4.30078 -10.4961,6.82422 -1.0469,1.15234 -5.3516,6.1914 -5.3516,7.86718 0,0.42188 0.3125,0.73438 0.7305,0.73438 0.6328,0 1.2656,-1.15234 1.5781,-1.57422 l 0.9453,-1.36328 c 1.2578,-1.78516 5.3516,-7.03516 7.7656,-7.03516 1.1563,0 1.3633,1.26172 1.3633,2.20703 0,1.89063 -0.7344,4.20313 -1.2578,6.08985 z m 0,0"
         id="path8945" />
      <path
         style="fill:#b82323;fill-opacity:1;fill-rule:evenodd;stroke:none;stroke-width:3.60114"
         d="m 1296.0938,739.88281 c 0,-10.38672 -7.4493,-20.46484 -18.4727,-20.46484 -14.5859,0 -28.2305,14.3789 -28.2305,28.86328 0,10.17969 6.5078,20.46484 17.6328,20.46484 7.3477,0 15.4297,-4.41015 20.5704,-9.55078 5.039,-5.03515 8.5,-12.28515 8.5,-19.3125 z m -7.2422,-4.72656 c 0,11.33984 -7.5547,31.28125 -21.0938,31.28125 -8.5039,0 -10.8125,-7.45313 -10.8125,-14.69141 0,-11.76172 7.2422,-30.23047 21.3086,-30.23047 8.1875,0 10.5977,6.50391 10.5977,13.64063"
         id="path8947" />
      <path
         style="fill:#b82323;fill-opacity:1;fill-rule:evenodd;stroke:none;stroke-width:3.60114"
         d="m 1321.1758,723.71875 h 8.082 c 0.6328,0 2.1016,0.10156 2.418,-0.625 0.3086,-0.73828 0.418,-0.94922 0.418,-1.47656 0,-0.9375 -2.1016,-0.625 -2.3125,-0.625 h -7.8672 l 2.7265,-8.71485 c 0.211,-0.625 0.6289,-1.98828 0.6289,-2.72265 0,-1.36719 -2.6211,-0.94922 -3.3554,-0.94922 -1.2618,0 -3.0469,-0.31641 -3.6758,1.14844 l -3.4649,11.23828 h -6.2968 c -1.5743,0 -2.836,-0.10938 -2.836,1.88672 0,1.05078 1.8907,0.83984 2.418,0.83984 h 5.9844 l -9.3438,30.44141 c -0.8398,2.625 -1.9961,6.1875 -1.9961,9.02343 0,2.41407 0.9453,5.5625 3.8867,5.5625 4.8243,0 11.3321,-7.34765 13.9571,-10.91406 0.6289,-0.84766 3.1484,-4.30859 3.1484,-5.46094 0,-0.41406 -0.3164,-0.83984 -0.8398,-0.83984 -0.5235,0 -0.8399,0.73828 -1.1524,1.26172 -0.4218,0.73047 -1.4726,2.10156 -1.8906,2.83203 -1.4687,1.99609 -5.3516,7.03516 -7.8711,7.03516 -1.2578,0 -1.6797,-1.16016 -1.6797,-2.21094 0,-1.36328 0.8399,-3.77344 1.2578,-5.03516 z m 0,0"
         id="path8949" />
      <path
         style="fill:#b82323;fill-opacity:1;fill-rule:evenodd;stroke:none;stroke-width:3.60114"
         d="m 1339.2148,748.07031 1.3672,-0.21094 c 11.125,-1.67968 34.5274,-3.2539 34.5274,-18.47656 0,-6.60547 -6.2969,-9.96484 -12.1719,-9.96484 -16.2695,0 -32.1172,16.6875 -32.1172,32.85156 0,9.02734 5.668,16.47656 15.1133,16.47656 7.6641,0 14.7969,-4.62109 19.8359,-10.18359 0.5235,-0.62891 2.7305,-3.14844 2.7305,-4.09375 0,-0.51953 -0.2109,-0.73438 -0.7344,-0.73438 -0.5273,0 -0.8398,0.42579 -1.1562,0.83985 -3.4649,4.9375 -10.3906,9.55078 -16.4766,9.55078 -7.4531,0 -11.1289,-5.14063 -11.1289,-12.06641 v -2.41406 z m 0.418,-2.09765 c 2.418,-9.86719 10.2891,-24.56641 21.9375,-24.56641 3.8828,0 6.1953,2.10156 6.1953,5.98828 0,3.46094 -1.4726,7.02734 -3.5703,9.76172 -4.8281,6.29297 -16.8984,8.1875 -24.5625,8.81641"
         id="path8951" />
      <path
         style="fill:#b82323;fill-opacity:1;fill-rule:evenodd;stroke:none;stroke-width:3.60114"
         d="m 1377.6328,763.60156 c -0.2109,0.83594 -0.7344,1.9961 -0.7344,2.9375 0,1.26172 2.8321,0.94922 3.461,0.94922 3.5703,0 3.4609,-0.94922 4.5117,-4.30469 3.8867,-12.38672 8.3984,-19.83984 12.7031,-25.5039 2.9375,-3.88282 11.8594,-13.4375 16.6875,-13.4375 3.9844,0 6.1914,3.77734 5.5625,9.44922 -1.2578,11.7539 -8.3984,32.84765 -15.5351,32.84765 -3.7774,0 -3.1485,-6.08984 -6.6133,-6.08984 -1.9922,0 -3.3594,1.26172 -3.3594,3.04687 0,3.99219 4.4102,5.25 7.2422,5.25 13.9609,0 25.8203,-23.72265 26.1367,-34.21484 0.207,-7.76563 -2.0976,-15.11328 -10.1797,-15.11328 -10.2851,0 -22.8828,17.6289 -26.3437,23.82812 l -0.211,-0.21484 13.8516,-45.12891 c 0.1055,-0.3164 0.7383,-2.3125 0.7383,-2.72656 0,-0.42578 -0.211,-0.84766 -0.6328,-0.84766 -0.3125,0 -0.7344,0.21094 -0.9414,0.32032 -3.8828,2.41406 -8.5039,3.14453 -13.0157,3.46484 -0.8398,0.10156 -2.3086,0.20313 -2.3086,1.36328 0,0.73047 0.5235,0.94141 1.1524,0.94141 l 1.8906,-0.10156 c 2.5195,-0.10938 3.8867,0.42187 3.8867,3.25 0,1.57421 -0.9492,4.51171 -1.4726,6.08984 z m 0,0"
         id="path8953" />
      <path
         style="fill:#b82323;fill-opacity:1;fill-rule:evenodd;stroke:none;stroke-width:3.60114"
         d="m 1489.3867,732.95703 c 0.8399,-2.20312 1.9961,-5.25 1.9961,-7.66406 0,-3.77735 -2.9414,-5.875 -6.5078,-5.875 -13.5391,0 -25.8203,18.47656 -31.5937,28.96484 l -0.2071,-0.21094 4.5117,-14.375 c 0.8399,-2.83593 1.7852,-6.1914 1.7852,-9.24218 0,-3.03907 -1.0508,-5.13672 -4.3047,-5.13672 -4.4062,0 -9.8633,5.24609 -12.4883,8.39062 -0.8398,0.84766 -4.5117,5.67188 -4.5117,6.82422 0,0.52344 0.418,0.73438 0.8359,0.73438 0.6329,0 0.9454,-0.625 1.1563,-1.14844 1.2578,-2.21094 7.0312,-9.23828 9.7617,-9.23828 1.5742,0 2.0977,1.15234 2.0977,2.51562 0,1.78516 -0.7344,4.09766 -1.2578,5.77344 l -9.3438,30.54297 c -0.207,0.52344 -0.6289,1.88672 -0.6289,2.41016 0,1.78906 2.2031,1.26562 3.2539,1.26562 3.3594,0 3.3594,-0.52734 4.3047,-3.56641 2.5156,-8.1875 10.5977,-22.15234 16.1602,-28.76562 3.2578,-3.77344 9.8671,-11.53906 15.4296,-11.53906 2.4141,0 3.6758,1.36328 3.6758,3.67187 0,1.89063 -0.8398,3.88281 -1.4726,5.66797 l -7.4532,19.83594 c -1.2578,3.2539 -2.8281,7.65625 -2.8281,11.23047 0,3.03906 1.3594,4.72265 4.5117,4.72265 4.3008,0 10.5977,-6.08593 13.3282,-9.13281 0.8398,-0.83984 4.7226,-5.66406 4.7226,-7.03125 0,-0.42187 -0.4219,-0.73437 -0.7344,-0.73437 -0.6289,0 -1.0507,0.625 -1.2578,1.05078 -1.7851,2.625 -7.664,9.96484 -11.0234,9.96484 -1.2578,0 -1.9922,-0.72656 -1.9922,-2.09375 0,-1.46875 1.0469,-3.98437 1.5742,-5.35547 z m 0,0"
         id="path8955" />
      <path
         style="fill:#b82323;fill-opacity:1;fill-rule:evenodd;stroke:none;stroke-width:3.60114"
         d="m 1507.2266,755.30859 c -0.7344,2.52344 -1.8907,6.51172 -1.8907,9.23828 0,2.41407 0.5274,4.19922 3.2539,4.19922 4.4102,0 10.2852,-6.08593 12.8047,-9.23437 1.0508,-1.36719 4.4102,-5.67578 4.4102,-7.45313 0,-0.42578 -0.1055,-0.73437 -0.6328,-0.73437 -0.7305,0 -1.1524,0.73437 -1.4688,1.35937 -1.2578,2.10157 -6.6093,9.55469 -9.2343,9.55469 -0.9454,0 -1.3633,-0.83984 -1.3633,-1.89062 0,-1.36329 0.5234,-2.83594 0.9414,-4.19922 l 7.7695,-25.1875 c 0.6289,-1.89063 1.7813,-5.66797 1.7813,-7.66797 0,-2.30078 -0.7344,-3.875 -3.2539,-3.875 -3.9844,0 -9.7579,5.13672 -12.379,7.66015 -0.8437,0.83985 -5.1445,5.45313 -5.1445,6.82032 0,0.52343 0.207,0.84375 0.6289,0.84375 1.3633,0 7.2422,-9.23828 10.8086,-9.23828 1.0508,0 1.2617,1.05078 1.2617,1.89062 0,0.94141 -0.6289,2.72656 -0.8398,3.56641 z m 22.0429,-49.53125 c 0,-2 -1.3672,-3.67578 -3.4648,-3.67578 -3.043,0 -5.3516,3.98828 -5.3516,6.71485 0,1.99609 1.0469,3.88671 3.25,3.88671 3.2539,0 5.5664,-3.98828 5.5664,-6.92578"
         id="path8957" />
      <path
         style="fill:#b82323;fill-opacity:1;fill-rule:evenodd;stroke:none;stroke-width:3.60114"
         d="m 1544.5781,748.80859 c 3.25,-0.63672 4.8242,2.72266 5.875,5.14063 3.043,6.92187 6.1914,14.79687 15.0078,14.79687 5.5625,0 10.7071,-3.67187 10.7071,-9.44531 0,-2.94141 -1.5742,-5.77734 -4.8282,-5.77734 -1.5742,0 -2.625,1.37109 -2.625,2.83593 0,3.77735 4.5118,2.20313 4.5118,5.77735 0,2.41015 -2.3047,3.98437 -4.5118,3.98437 -4.6171,0 -7.0312,-6.08593 -8.707,-9.54687 -1.5781,-3.36328 -3.2578,-7.03906 -6.9297,-8.40235 6.1914,-0.9414 12.9063,-1.88671 18.3672,-5.14062 5.1406,-3.04688 9.8633,-8.08594 9.8633,-14.375 0,-4.9375 -3.7773,-9.23828 -8.8164,-9.23828 -10.2813,0 -22.5625,15.73828 -27.1836,24.13672 l 13.8555,-45.33985 c 0.2109,-0.52343 0.8437,-2.52343 0.8437,-3.14843 0,-0.41797 -0.3164,-0.73829 -0.7383,-0.73829 -0.3164,0 -0.8398,0.21094 -1.1523,0.32032 -4.0977,2.41406 -7.3477,2.61718 -11.9649,2.61718 -0.8437,0 -2.414,-0.10156 -2.414,1.05079 0,1.16015 1.0469,1.05078 1.8867,1.05078 1.8906,0.10937 4.6172,0.32031 4.6172,2.83593 0,1.47266 -0.9414,4.41016 -1.3633,5.875 l -17,55.84375 c -0.2109,0.625 -0.6289,1.88672 -0.6289,2.51563 0,1.46484 2.7266,1.05078 3.4609,1.05078 4.0938,0 3.2539,-0.94922 4.7227,-4.82812 z m 0.9414,-1.89843 c 3.7813,-7.13672 15.0078,-23.19141 23.8243,-23.19141 2.8359,0 4.621,2.10156 4.621,4.82812 0,5.03516 -3.8867,9.55079 -7.7695,12.48829 -5.039,3.78515 -11.8594,5.875 -18.1562,5.875 z m 0,0"
         id="path8959" />
      <path
         style="fill:#b82323;fill-opacity:1;fill-rule:evenodd;stroke:none;stroke-width:3.60114"
         d="m 1631.1563,739.88281 c 0,-10.38672 -7.4532,-20.46484 -18.4727,-20.46484 -14.5898,0 -28.2344,14.3789 -28.2344,28.86328 0,10.17969 6.5078,20.46484 17.6328,20.46484 7.3477,0 15.4297,-4.41015 20.5743,-9.55078 5.0351,-5.03515 8.5,-12.28515 8.5,-19.3125 z m -7.2422,-4.72656 c 0,11.33984 -7.5547,31.28125 -21.0938,31.28125 -8.5039,0 -10.8125,-7.45313 -10.8125,-14.69141 0,-11.76172 7.2422,-30.23047 21.3047,-30.23047 8.1875,0 10.6016,6.50391 10.6016,13.64063"
         id="path8961" />
      <path
         style="fill:#211e1e;fill-opacity:1;fill-rule:evenodd;stroke:none;stroke-width:3.60114"
         d="m 477.21094,641.54297 c 0,5.24219 0.10547,9.96484 -3.77735,13.95312 -4.30468,4.30078 -11.01953,5.67188 -17.0039,5.67188 -5.77344,0 -13.7461,-1.47266 -17,-6.82422 -2.41797,-3.88281 -2.20313,-11.54688 -2.20313,-16.16406 v -29.60157 c 0,-6.60156 -0.52734,-8.60156 6.82031,-8.60156 0.94532,0 2.73047,0 2.73047,-1.36328 0,-1.15234 -0.83984,-1.47266 -1.78515,-1.47266 -3.99219,0 -7.98047,0.42188 -11.96485,0.42188 -3.98828,0 -7.76953,-0.42188 -11.75781,-0.42188 -1.05078,0 -1.78516,0.32032 -1.78516,1.47266 0,1.36328 1.6836,1.36328 2.625,1.36328 7.34766,0 6.82422,2 6.82422,8.60156 v 32.96485 c 0,6.92578 -0.10547,12.90234 6.19141,17.41797 5.25,3.67187 13.32812,4.82422 19.52344,4.82422 6.92187,0 14.48047,-1.05079 19.73047,-5.5625 5.66796,-4.92579 5.77343,-9.96485 5.77343,-16.67969 v -32.75 c 0,-4.82813 -0.52343,-8.81641 5.45313,-8.81641 0.94922,0 3.35937,0 3.35937,-1.47265 0,-1.25391 -1.36328,-1.36329 -2.20312,-1.36329 -2.72656,0 -5.45703,0.42188 -8.1875,0.42188 -3.14844,0 -6.29297,-0.42188 -9.44531,-0.42188 -1.04688,0 -2.20313,0.32032 -2.20313,1.47266 0,1.46484 1.89063,1.36328 2.83203,1.36328 2.41797,0 5.04297,0.10156 6.30078,2.41406 1.25782,2.10157 1.15235,7.8711 1.15235,10.38672 z m 0,0"
         id="path8963" />
      <path
         style="fill:#211e1e;fill-opacity:1;fill-rule:evenodd;stroke:none;stroke-width:3.60114"
         d="m 495.89062,651.82031 c 0,4.51563 0.94532,8.08985 -4.72265,8.61328 -1.15625,0.10157 -2.94141,-0.10937 -2.94141,1.46485 0,0.83593 0.73828,1.05078 1.46875,1.05078 3.25391,0 6.61328,-0.41406 9.97266,-0.41406 3.14844,0 6.50781,0.41406 9.86719,0.41406 0.73437,0 1.25781,-0.31641 1.25781,-1.15235 0,-1.36328 -1.89063,-1.26171 -2.9375,-1.36328 -5.66797,-0.52343 -4.72266,-4.09765 -4.72266,-8.61328 v -17.625 c 0,-4.20312 0.3125,-6.51172 3.35547,-9.65625 2.73047,-2.83594 6.40625,-4.51172 10.39063,-4.51172 4.09375,0 7.875,1.67578 9.86718,4.71485 1.89063,2.83593 1.89063,7.03906 1.89063,10.39062 v 16.6875 c 0,4.51563 0.94531,8.08985 -4.72656,8.61328 -1.15235,0.10157 -2.9375,-0.10937 -2.9375,1.46485 0,0.83593 0.73437,1.05078 1.47265,1.05078 3.25,0 6.60938,-0.41406 9.96875,-0.41406 3.14844,0 6.50781,0.41406 9.86719,0.41406 0.73437,0 1.25781,-0.31641 1.25781,-1.15235 0,-1.36328 -1.88672,-1.26171 -2.9375,-1.36328 -5.66797,-0.52343 -4.72265,-4.09765 -4.72265,-8.61328 v -16.57812 c 0,-5.03907 0.21093,-10.17969 -3.14844,-14.48828 -2.94141,-3.77344 -7.13672,-5.66407 -12.38672,-5.66407 -9.55078,0 -15.42578,8.60157 -17.21094,8.60157 v -6.92579 c 0,-0.72656 0.10156,-1.67578 -0.94531,-1.67578 -0.83984,0 -1.36328,0.83985 -1.89063,1.36328 -1.67968,2 -6.1914,4.72657 -8.71093,5.46094 -0.94141,0.3125 -2.41407,0.52735 -2.41407,1.77735 0,0.63671 0.63282,0.84765 1.25782,0.84765 h 1.36718 c 0.83985,0 2.41407,0.10156 3.04297,0.83985 1.15235,1.14843 1.05078,5.24218 1.05078,6.71484 z m 0,0"
         id="path8965" />
      <path
         style="fill:#211e1e;fill-opacity:1;fill-rule:evenodd;stroke:none;stroke-width:3.60114"
         d="m 563.77344,616.76562 c 0,-0.72656 0.10547,-1.67578 -0.94532,-1.67578 -0.83984,0 -1.36328,0.83985 -1.88671,1.36328 -1.67969,2 -6.19532,4.72657 -8.71094,5.46094 -0.94531,0.3125 -2.41406,0.52735 -2.41406,1.77735 0,0.63671 0.6289,0.84765 1.25781,0.84765 h 1.36328 c 0.84375,0 2.41406,0.10156 3.04687,0.83985 1.15625,1.14843 1.04688,5.24218 1.04688,6.71484 v 19.72656 c 0,4.51563 0.94531,8.08985 -4.72266,8.61328 -1.15234,0.10157 -2.9375,-0.10937 -2.9375,1.46485 0,0.83593 0.73438,1.05078 1.46875,1.05078 3.25391,0 6.61328,-0.41406 9.97266,-0.41406 3.14844,0 6.50781,0.41406 9.86328,0.41406 0.73828,0 1.25781,-0.31641 1.25781,-1.15235 0,-1.36328 -1.88672,-1.26171 -2.9375,-1.36328 -5.66797,-0.52343 -4.72265,-4.09765 -4.72265,-8.61328 z m -3.67578,-10.80468 c 3.04687,0 4.62109,-2.41016 4.62109,-5.2461 0,-2.52734 -1.67969,-5.03906 -4.40625,-5.03906 -2.83594,0 -4.72266,2.51172 -4.72266,5.25 0,2.72656 1.67578,5.03516 4.50782,5.03516"
         id="path8967" />
      <path
         style="fill:#211e1e;fill-opacity:1;fill-rule:evenodd;stroke:none;stroke-width:3.60114"
         d="m 599.54297,652.98047 -10.70703,-26.23828 c -0.52344,-1.26172 -1.67969,-3.88672 -1.67969,-5.25 0,-1.99219 1.99609,-2.9375 3.88672,-2.9375 0.73047,0 2.9375,0.3125 2.9375,-0.94141 0,-1.26172 -1.05078,-1.16016 -1.9961,-1.16016 h -18.99609 c -0.83984,0 -1.57422,-0.10156 -1.57422,0.94922 0,1.15235 1.15235,1.15235 1.9961,1.15235 4.40625,0.21093 4.93359,2.19922 6.50781,6.08593 l 15.21484,36.73438 0.63281,1.35937 c 0.10157,0.42579 0.41797,1.05079 0.94532,1.05079 0.83984,0 1.57422,-2.08985 1.78125,-2.41016 L 613.5,628.84375 c 1.78516,-3.88672 3.67578,-9.66406 8.60547,-10.28906 0.84375,-0.10157 2.6289,-0.10157 2.6289,-1.36328 0,-0.94922 -0.52734,-0.73829 -1.36718,-0.73829 h -15.42578 c -0.83985,0 -1.57422,0 -1.57422,0.94922 0,1.15235 1.88672,1.15235 2.83203,1.15235 1.89062,0 4.09375,0.73437 4.09375,2.83593 0,1.25391 -0.83985,3.35157 -1.36719,4.51172 z m 0,0"
         id="path8969" />
      <path
         style="fill:#211e1e;fill-opacity:1;fill-rule:evenodd;stroke:none;stroke-width:3.60114"
         d="m 664.625,633.98047 c 1.04687,0 1.25781,-0.94531 1.25781,-1.78516 0,-3.46094 -1.57422,-7.97656 -3.67578,-10.60156 -3.67187,-4.50391 -9.44531,-6.50391 -15.11328,-6.50391 -7.13672,0 -13.64453,2.41407 -18.89063,7.03516 -5.5625,4.82812 -7.55468,10.39062 -7.55468,17.52344 0,13.12109 10.17968,24.13672 23.92578,24.13672 6.51172,0 11.65234,-1.67579 16.58203,-5.875 0.73828,-0.625 4.09766,-3.46485 4.09766,-4.72266 0,-0.41797 -0.31641,-0.83984 -0.83985,-0.83984 -1.36719,0 -5.25,6.82421 -15.53515,6.82421 -12.69922,0 -20.36329,-10.17578 -20.36329,-21.9414 0,-3.46094 1.05469,-3.25 4.30469,-3.25 z m -31.69922,-2.51563 c -1.15625,0 -3.56641,0.31641 -3.56641,-1.37109 0,-1.67578 1.78125,-4.92578 2.6211,-6.07813 3.2539,-4.41015 8.28906,-7.03515 13.64453,-7.03515 3.35937,0 6.82031,0.83594 9.13281,3.25 1.46875,1.57422 2.72656,3.98828 2.72656,6.19922 0,2.51172 -1.57421,3.66406 -3.8789,4.1914 -3.04688,0.73828 -8.92578,0.84375 -12.17969,0.84375 z m 0,0"
         id="path8971" />
      <path
         style="fill:#211e1e;fill-opacity:1;fill-rule:evenodd;stroke:none;stroke-width:3.60114"
         d="m 676.38281,651.82031 c 0,4.51563 0.94531,8.08985 -4.71875,8.61328 -1.15625,0.10157 -2.9414,-0.10937 -2.9414,1.46485 0,0.83593 0.73437,1.05078 1.46875,1.05078 3.2539,0 6.60937,-0.41406 9.97265,-0.41406 3.14844,0 6.50781,0.41406 9.86719,0.41406 0.73047,0 1.25781,-0.31641 1.25781,-1.15235 0,-1.36328 -1.89062,-1.26171 -2.9414,-1.36328 -5.66797,-0.52343 -4.72266,-4.09765 -4.72266,-8.61328 v -16.57812 c 0,-4.19922 -0.20703,-6.92578 2.41406,-10.5 1.15625,-1.57422 3.04297,-3.77344 5.35547,-3.77344 2.9375,0 3.14844,3.98828 6.71484,3.98828 2.51954,0 4.41016,-1.57422 4.41016,-4.20312 0,-3.14063 -2.83594,-5.03907 -5.98437,-5.03907 -7.23829,0 -11.33204,8.40235 -12.38282,8.40235 -0.73437,0 -0.52734,-1.78516 -0.52734,-2.20313 v -5.14844 c 0,-0.72656 0.10547,-1.67578 -0.94531,-1.67578 -0.83594,0 -1.36328,0.83985 -1.88672,1.36328 -1.67969,2 -6.19531,4.72657 -8.71094,5.46094 -0.94531,0.3125 -2.41406,0.52735 -2.41406,1.77735 0,0.63671 0.6289,0.84765 1.25781,0.84765 h 1.36328 c 0.83985,0 2.41406,0.10156 3.04688,0.83985 1.15234,1.14843 1.04687,5.24218 1.04687,6.71484 z m 0,0"
         id="path8973" />
      <path
         style="fill:#211e1e;fill-opacity:1;fill-rule:evenodd;stroke:none;stroke-width:3.60114"
         d="m 745.21875,620.23047 c 0.42187,-0.52344 1.68359,-2.19922 1.68359,-3.03906 0,-0.94922 -1.26172,-0.73829 -1.89062,-0.73829 h -25.60938 c -2.625,0 -5.35156,0.21094 -5.35156,-3.03906 0,-0.73437 -0.10547,-1.68359 -1.05078,-1.68359 -1.05078,0 -1.67969,2.30859 -1.88672,2.9375 l -2.73047,7.97656 c -0.10547,0.32031 -0.73437,1.99609 -0.73437,2.41797 0,0.51953 0.41797,0.83984 0.94531,0.83984 0.83984,0 1.36328,-1.05078 1.78125,-1.68359 1.15625,-1.67578 3.35937,-3.46484 5.25,-4.30078 2.51953,-1.15235 5.77344,-0.83985 8.39453,-0.83985 h 10.5 c 0.51953,0 1.78125,0 1.78125,0.73829 0,0.625 -0.94531,1.88671 -1.26172,2.30859 L 707.125,659.07031 c -0.21094,0.41406 -1.47266,1.77735 -1.47266,2.41406 0,1.57422 2.94141,1.05079 3.78125,1.05079 h 35.6836 c 2.09765,0.19921 1.57422,-2.41407 1.57422,-3.67579 l 0.21093,-5.14843 c 0,-0.73047 0.52344,-3.98047 -0.94531,-3.98047 -1.05078,0 -1.25781,1.36328 -1.46875,2.08984 -1.05078,2.73828 -2.09766,5.25391 -4.72656,6.72266 -2.72656,1.46484 -7.34375,1.57812 -10.49219,1.57812 h -9.13281 c -0.42188,0 -3.67188,0.20313 -3.67188,-0.84765 0,-0.73047 1.25782,-2.19922 1.67969,-2.61719 z m 0,0"
         id="path8975" />
      <path
         style="fill:#211e1e;fill-opacity:1;fill-rule:evenodd;stroke:none;stroke-width:3.60114"
         d="m 768.62891,640.80469 c -5.87891,2.72656 -15.53516,7.24218 -15.53516,14.6914 0,5.25 4.93359,8.28907 9.86719,8.28907 9.1289,0 15.95312,-7.97266 16.89843,-7.97266 1.46875,0 1.99219,7.34766 7.13282,7.34766 2.73047,0 5.35547,-1.57422 7.45312,-3.03907 0.73828,-0.63672 2.51953,-2.10156 2.51953,-3.26172 0,-0.41406 -0.3125,-0.83593 -0.73437,-0.83593 -0.94141,0 -2.09766,2.625 -4.72266,2.625 -3.78125,0 -3.67187,-6.08985 -3.67187,-8.40235 v -24.76562 c 0,-2.83594 0.41797,-5.45313 -2.10157,-7.66406 -2.41015,-2.10157 -6.29296,-2.72657 -9.55078,-2.72657 -6.71484,0 -13.85156,2.83594 -18.78515,7.24219 -1.9961,1.68359 -4.41016,4.72266 -4.41016,7.44922 0,1.05078 0.52734,1.26172 1.36719,1.26172 1.25781,0 3.46094,-0.83985 4.51172,-1.36328 1.67968,-0.73828 2.20312,-2.20313 2.9375,-3.77735 2.41406,-5.35156 5.67187,-8.8125 12.07031,-8.8125 6.50781,0 6.71875,4.30078 6.71875,9.4375 v 4.61719 c 0,3.98828 -0.10938,4.09766 -3.88281,5.88672 z m 10.07421,-2.72266 c 0.31641,-0.11328 0.83985,-0.42578 1.15625,-0.42578 1.04688,0 0.73438,2.51562 0.73438,2.9375 v 6.30078 c 0,3.46094 -0.10938,5.24609 -2.625,7.86719 -2.51953,2.52344 -6.08594,4.19922 -9.76172,4.19922 -3.88281,0 -7.24219,-2.10157 -7.24219,-6.19141 0,-5.03906 4.09375,-7.76562 8.1875,-9.86328 z m 0,0"
         id="path8977" />
      <path
         style="fill:#211e1e;fill-opacity:1;fill-rule:evenodd;stroke:none;stroke-width:3.60114"
         d="m 857.78125,625.79297 c 0.94531,-2.41016 1.99609,-4.92578 1.99609,-7.55469 0,-2.41016 -1.26172,-3.77344 -3.67578,-3.77344 -2.73047,0 -6.08594,2.19922 -8.1875,3.77344 -3.35547,2.51563 -5.14062,4.30469 -7.55469,7.66406 -0.3164,0.52735 -1.36328,1.89063 -1.36328,2.51563 0,0.42578 0.20703,0.83984 0.62891,0.83984 0.52734,0 1.04687,-0.6289 1.25781,-0.9414 1.36328,-2.09766 7.03125,-8.71094 9.65625,-8.71094 0.94531,0 1.46875,0.625 1.46875,1.57422 0,1.15234 -1.15234,3.5625 -1.57422,4.61328 l -7.55468,18.6875 c -1.05079,2.61719 -2.94141,7.55078 -2.94141,10.28125 0,6.51172 3.46484,9.02344 9.55469,9.02344 17.20703,0 34.84375,-27.17969 34.84375,-42.81641 0,-2.51563 -1.05078,-7.55469 -4.30469,-7.55469 -2.20313,0 -3.57031,2.72656 -3.57031,4.61719 0,2.09766 0.94922,3.5625 1.99609,5.13672 0.94531,1.47265 1.26172,2.52344 1.26172,4.30859 0,11.23047 -15.11328,32.84766 -27.18359,32.84766 -3.14844,0 -5.35157,-2.41406 -5.35157,-5.45703 0,-2.51953 1.15235,-5.5625 2.09766,-7.97266 z m 0,0"
         id="path8979" />
      <path
         style="fill:#211e1e;fill-opacity:1;fill-rule:evenodd;stroke:none;stroke-width:3.60114"
         d="m 957.38281,651.29687 c 0.21094,-0.72656 0.62891,-1.99218 0.62891,-2.82812 0,-0.63281 -0.41797,-0.94922 -1.05078,-0.94922 -1.15235,0 -1.78125,1.89063 -2.20313,2.72656 -5.14062,10.5 -12.69922,9.66407 -22.8789,9.66407 -1.78516,0 -4.30469,0.41406 -4.30469,-2.10157 0,-0.94922 0.52734,-2.625 0.84375,-3.57422 l 14.26953,-46.49218 c 1.57422,-5.03907 2.20703,-8.07813 9.23828,-7.97657 1.04688,0 3.14844,0.21094 3.14844,-1.36328 0,-1.15234 -1.05078,-1.26172 -1.9961,-1.26172 -4.08984,0.10938 -8.28906,0.42188 -12.38281,0.42188 -3.2539,0 -6.50781,-0.3125 -9.76172,-0.42188 -0.83984,0 -3.2539,-0.52734 -3.2539,0.83985 0,1.57422 1.46875,1.89453 2.625,1.78515 2.20312,-0.3164 5.14062,-0.41406 5.14062,2.72657 0,1.37109 -0.83984,3.88672 -1.25781,5.14843 l -13.53906,44.17969 c -0.73438,2.3125 -1.57422,5.67188 -3.56641,7.14063 -1.47266,1.16015 -3.78125,1.16015 -5.56641,1.16015 -1.15625,0.10157 -2.72656,0.10157 -2.72656,1.67578 0,1.36329 4.40625,0.73829 5.5625,0.73829 h 35.78906 c 3.67188,0 3.77735,0 4.82813,-3.36329 z m 0,0"
         id="path8981" />
      <path
         style="fill:#211e1e;fill-opacity:1;fill-rule:evenodd;stroke:none;stroke-width:3.60114"
         d="m 992.42969,600.81641 c 0,-1.99219 -1.25782,-3.67579 -3.35547,-3.67579 -3.04297,0 -5.35547,3.98829 -5.35547,6.61329 0,2.09765 1.05078,3.98828 3.25391,3.98828 3.2539,0 5.45703,-3.98828 5.45703,-6.92578 z m -7.44922,25.08593 c 0.6289,-1.88672 1.78125,-5.67187 1.78125,-7.5625 0,-2.30078 -0.73047,-3.875 -3.25,-3.875 -3.99219,0 -9.65625,5.14063 -12.28125,7.66016 -0.83985,0.73047 -5.25,5.35156 -5.25,6.71875 0,0.52344 0.21094,0.83594 0.73437,0.83594 1.36719,0 7.14063,-9.12891 10.8125,-9.12891 0.94532,0 1.25782,1.04297 1.25782,1.89063 0,0.83593 -0.73438,2.62109 -0.94141,3.46093 l -15.42969,50.48438 c -0.94531,3.25 -2.09765,8.5 -6.40234,8.5 -4.40625,0 -3.98828,-6.51172 -8.29297,-6.51172 -1.99219,0 -3.56641,1.68359 -3.56641,3.67578 0,3.98828 4.82813,5.25 8.08203,5.25 4.61719,0 9.33985,-2.3125 12.59375,-5.5625 4.19922,-4.30469 6.50782,-10.8125 8.1875,-16.37891 z m 0,0"
         id="path8983" />
      <path
         style="fill:#211e1e;fill-opacity:1;fill-rule:evenodd;stroke:none;stroke-width:3.60114"
         d="m 1032.6094,635.76562 -4.6172,14.90625 c -0.7344,2.51563 -1.8906,6.61329 -1.8906,9.23829 0,1.78515 0.6328,3.875 2.8359,3.875 4.9336,0 11.3359,-5.24219 14.3789,-8.70313 0.8399,-0.94922 5.3516,-6.61328 5.3516,-8.08594 0,-0.41406 -0.3164,-0.73828 -0.7344,-0.73828 -0.5234,0 -0.9414,0.73828 -1.2578,1.16016 -1.6797,2.82812 -7.4531,10.39062 -11.0195,10.39062 -1.1563,0 -1.6797,-1.15234 -1.6797,-2.10156 0,-1.26172 0.5234,-3.14844 0.9453,-4.41016 l 10.1797,-33.26562 c 0.207,-0.62891 0.6289,-1.78906 0.6289,-2.51563 0,-1.57812 -2.7305,-1.05078 -3.5664,-1.05078 -3.9922,0 -3.2578,0.52344 -4.4102,4.40235 -3.2539,10.5 -8.3945,19.83984 -15.6367,28.1289 -2.9375,3.46485 -11.6485,12.07422 -16.586,12.07422 -1.8867,0 -2.832,-1.16015 -2.832,-2.94531 0,-1.46875 0.7344,-3.66797 1.1563,-5.03125 l 8.3945,-25.08594 c 0.7344,-2.10156 1.5742,-4.72656 1.5742,-6.92969 0,-2.20312 -0.7344,-4.61328 -3.3555,-4.61328 -3.8867,0 -9.1328,4.51172 -11.54683,6.92578 -1.05078,1.15235 -5.66796,6.81641 -5.66796,8.60157 0,0.42187 0.10546,0.6289 0.52343,0.6289 0.94532,0 1.89063,-1.67968 2.3086,-2.30468 1.36718,-1.9961 6.08596,-8.1875 8.82026,-8.1875 1.1524,0 1.4688,0.83984 1.4688,1.78515 0,1.05078 -0.8438,3.14844 -1.1563,4.09375 l -8.18745,23.82422 c -0.83594,2.41406 -1.99219,5.98047 -1.99219,8.5 0,3.15234 1.15625,5.45313 4.51172,5.45313 6.39842,0 13.53902,-5.35157 18.05082,-9.44141 6.4062,-5.77344 9.4453,-10.59766 14.2734,-17.52734 z m 0,0"
         id="path8985" />
      <path
         style="fill:#211e1e;fill-opacity:1;fill-rule:evenodd;stroke:none;stroke-width:3.60114"
         d="m 1060.4258,639.33203 c -1.1524,3.88672 -2.7266,8.08594 -2.7266,12.27734 0,8.30079 5.9844,12.17579 13.8555,12.17579 17.7383,0 34.5312,-17.62891 34.5312,-35.25782 0,-6.61328 -3.0429,-14.0625 -10.707,-14.0625 -10.1797,0 -22.8828,15.62891 -27.5,23.92578 l 14.4844,-47.96484 c 0,-0.73437 -0.3125,-1.05078 -0.9414,-1.05078 -0.4219,0 -0.8399,0.21094 -1.0508,0.42187 -3.6758,2.30469 -6.6133,2.625 -10.8086,2.625 -1.0508,0 -3.2578,0.20704 -3.2578,1.67579 0,1.26562 3.0469,1.05078 3.6758,1.05078 1.6797,0 2.832,0.41797 2.832,2.41406 0,1.26172 -0.8398,3.98828 -1.2578,5.25 z m 37.789,-10.80469 c 0,12.58985 -13.0156,33.48047 -26.871,33.48047 -4.3008,0 -7.7657,-2.09765 -7.7657,-6.72265 0,-9.96485 17.9453,-35.9961 28.7578,-35.9961 4.8282,0 5.8789,5.45313 5.8789,9.23828"
         id="path8987" />
      <path
         style="fill:#211e1e;fill-opacity:1;fill-rule:evenodd;stroke:none;stroke-width:3.60114"
         d="m 1112.4883,650.46094 c -0.8438,2.72656 -1.8906,6.29687 -1.8906,9.23437 0,2.41406 0.5234,4.08985 3.25,4.08985 4.4101,0 10.3945,-6.08594 12.8086,-9.12891 1.0468,-1.25781 4.4062,-5.5625 4.4062,-7.44922 0,-0.42187 -0.1055,-0.73828 -0.5234,-0.73828 -0.8399,0 -1.2618,0.83984 -1.5743,1.36719 -1.2617,2.20703 -6.6132,9.54687 -9.1328,9.54687 -1.0468,0 -1.4726,-0.9375 -1.4726,-1.77734 0,-1.47266 0.6328,-2.9375 1.0508,-4.19922 l 17.9492,-58.57031 c 0.1054,-0.41407 0.6289,-1.98828 0.6289,-2.51172 0,-0.52735 -0.3125,-0.94922 -0.8399,-0.94922 -0.3125,0 -0.7304,0.31641 -0.9414,0.42187 -3.4648,2.625 -7.875,3.77735 -12.0703,3.98829 -1.0508,0 -3.1484,-0.10938 -3.1484,1.36328 0,0.73828 0.5234,1.15234 1.2578,1.15234 l 1.6797,-0.10156 c 1.7851,-0.10938 4.0937,0.21094 4.0937,2.625 0,0.9414 -0.7343,3.35547 -1.0507,4.30078 z m 0,0"
         id="path8989" />
      <path
         style="fill:#211e1e;fill-opacity:1;fill-rule:evenodd;stroke:none;stroke-width:3.60114"
         d="m 1166.2148,600.81641 c 0,-1.99219 -1.2617,-3.67579 -3.3593,-3.67579 -3.043,0 -5.3516,3.98829 -5.3516,6.61329 0,2.09765 1.043,3.98828 3.25,3.98828 3.2539,0 5.4609,-3.98828 5.4609,-6.92578 z m -7.4531,25.08593 c 0.6289,-1.88672 1.7813,-5.67187 1.7813,-7.5625 0,-2.30078 -0.7305,-3.875 -3.2539,-3.875 -3.9883,0 -9.6524,5.14063 -12.2774,7.66016 -0.8398,0.73047 -5.25,5.35156 -5.25,6.71875 0,0.52344 0.211,0.83594 0.7383,0.83594 1.3633,0 7.1367,-9.12891 10.8086,-9.12891 0.9453,0 1.2617,1.04297 1.2617,1.89063 0,0.83593 -0.7344,2.62109 -0.9453,3.46093 l -15.4297,50.48438 c -0.9453,3.25 -2.1015,8.5 -6.4023,8.5 -4.4102,0 -3.9883,-6.51172 -8.2891,-6.51172 -1.9961,0 -3.5703,1.68359 -3.5703,3.67578 0,3.98828 4.8281,5.25 8.0781,5.25 4.6211,0 9.3438,-2.3125 12.5977,-5.5625 4.1992,-4.30469 6.5078,-10.8125 8.1836,-16.37891 z m 0,0"
         id="path8991" />
      <path
         style="fill:#211e1e;fill-opacity:1;fill-rule:evenodd;stroke:none;stroke-width:3.60114"
         d="m 1209.6484,618.12891 c -2.2031,-2.82422 -4.5156,-3.66407 -8.082,-3.66407 -9.5547,0 -19,5.97657 -25.4023,12.69141 -5.9805,6.30078 -12.0703,16.90234 -12.0703,25.82422 0,5.14062 2.4179,10.80469 8.2929,10.80469 12.3828,0 26.4492,-20.03907 32.3242,-29.69532 l -6.4023,20.77735 c -0.5195,1.78906 -1.1523,3.88281 -1.1523,5.8789 0,1.78907 0.9453,3.03907 2.8359,3.03907 4.1953,0 9.8633,-4.92579 12.4883,-7.76172 1.2578,-1.36719 5.5625,-6.82813 5.5625,-8.71485 0,-0.41406 -0.3125,-0.83984 -0.7344,-0.83984 -0.7344,0 -1.4688,1.36719 -1.7852,1.89062 -1.2578,1.9961 -6.1914,8.61329 -8.8164,8.61329 -0.8398,0 -1.0468,-0.73829 -1.0468,-1.57813 0,-0.94922 0.6289,-2.625 0.8359,-3.46094 l 10.8125,-35.48047 c 0.1055,-0.41406 0.5234,-1.57421 0.5234,-2.09765 0,-1.46485 -2.9375,-0.94141 -3.5664,-0.94141 -3.4648,0 -3.2539,0.52344 -4.3047,3.77735 z m -1.5781,3.78515 c 0,4.82813 -8.6055,16.79297 -11.543,20.46875 -3.6757,4.61328 -13.0156,15.83985 -19.414,15.83985 -3.3594,0 -4.832,-3.46094 -4.832,-6.40235 0,-6.60156 5.5664,-17.21484 9.5507,-22.24219 4.4102,-5.77343 11.8633,-13.125 19.5235,-13.125 3.5664,0 6.7148,1.57813 6.7148,5.46094"
         id="path8993" />
      <path
         style="fill:#211e1e;fill-opacity:1;fill-rule:evenodd;stroke:none;stroke-width:3.60114"
         d="m 1277.6602,628.00391 c 0.8398,-2.21094 1.9921,-5.25 1.9921,-7.66407 0,-3.78515 -2.9375,-5.875 -6.5039,-5.875 -13.5429,0 -25.8203,18.46485 -31.5976,28.96485 l -0.207,-0.21094 4.5117,-14.375 c 0.8398,-2.83594 1.7851,-6.19922 1.7851,-9.23828 0,-3.05078 -1.0508,-5.14063 -4.3047,-5.14063 -4.4062,0 -9.8632,5.24219 -12.4882,8.39063 -0.8399,0.83594 -4.5118,5.67187 -4.5118,6.82422 0,0.52343 0.418,0.73437 0.8399,0.73437 0.6289,0 0.9414,-0.63281 1.1523,-1.15625 1.2578,-2.20312 7.0313,-9.23047 9.7617,-9.23047 1.5743,0 2.0977,1.15235 2.0977,2.51563 0,1.78515 -0.7305,4.09765 -1.2578,5.77344 l -9.3438,30.54296 c -0.207,0.52344 -0.625,1.88672 -0.625,2.41407 0,1.78515 2.2032,1.26172 3.25,1.26172 3.3633,0 3.3633,-0.52735 4.3047,-3.57422 2.5157,-8.19141 10.6016,-22.14453 16.1641,-28.75782 3.2539,-3.77343 9.8633,-11.54687 15.4258,-11.54687 2.414,0 3.6758,1.37109 3.6758,3.67578 0,1.88672 -0.8399,3.88672 -1.4688,5.67188 l -7.4531,19.83203 c -1.2578,3.25781 -2.8321,7.66015 -2.8321,11.23437 0,3.03906 1.3633,4.71485 4.5118,4.71485 4.3007,0 10.6015,-6.08594 13.3281,-9.12891 0.8398,-0.83594 4.7226,-5.66016 4.7226,-7.02734 0,-0.42188 -0.4179,-0.73438 -0.7304,-0.73438 -0.6328,0 -1.0508,0.625 -1.2617,1.05078 -1.7852,2.625 -7.6641,9.96485 -11.0235,9.96485 -1.2578,0 -1.9922,-0.72657 -1.9922,-2.09766 0,-1.46875 1.0508,-3.99219 1.5743,-5.35156 z m 0,0"
         id="path8995" />
      <path
         style="fill:#211e1e;fill-opacity:1;fill-rule:evenodd;stroke:none;stroke-width:3.60114"
         d="m 1295.5,650.35547 c -0.7383,2.51562 -1.8906,6.5039 -1.8906,9.23828 0,2.41406 0.5234,4.19141 3.25,4.19141 4.4101,0 10.289,-6.08594 12.8086,-9.22657 1.0468,-1.37109 4.4062,-5.67578 4.4062,-7.46093 0,-0.41407 -0.1015,-0.73047 -0.6328,-0.73047 -0.7344,0 -1.1523,0.73047 -1.4648,1.36328 -1.2618,2.10156 -6.6133,9.55469 -9.2383,9.55469 -0.9453,0 -1.3633,-0.83985 -1.3633,-1.89063 0,-1.36328 0.5234,-2.83594 0.9453,-4.19922 l 7.7656,-25.1875 c 0.6289,-1.89062 1.7852,-5.66797 1.7852,-7.66797 0,-2.30078 -0.7344,-3.875 -3.2578,-3.875 -3.9844,0 -9.7578,5.14063 -12.3828,7.66016 -0.836,0.83984 -5.1407,5.45312 -5.1407,6.81641 0,0.52734 0.211,0.83984 0.629,0.83984 1.3632,0 7.2421,-9.23047 10.8085,-9.23047 1.0508,0 1.2618,1.04297 1.2618,1.89063 0,0.9414 -0.6289,2.72656 -0.8399,3.5664 z m 22.0352,-49.53906 c 0,-1.99219 -1.3594,-3.67579 -3.461,-3.67579 -3.0429,0 -5.3515,3.98829 -5.3515,6.72266 0,1.98828 1.0468,3.87891 3.2539,3.87891 3.25,0 5.5586,-3.98828 5.5586,-6.92578"
         id="path8997" />
      <path
         style="fill:#b82323;fill-opacity:1;fill-rule:nonzero;stroke:none;stroke-width:3.60114"
         d="M 53.855469,906.14062 V 600.17578 H 359.82422 v 305.96484 z m 0,0"
         id="path8999" />
      <path
         style="fill:#211e1e;fill-opacity:1;fill-rule:evenodd;stroke:none;stroke-width:3.60114"
         d="m 253.08594,458.41016 v 61.88281 h -3.30469 l -0.10156,-61.88281 z m -25.40235,-5.27735 h 20.4336 v 2.76563 l -21.66407,-0.56641 c -2.30078,-5.77734 -10.83984,-10.02344 -20.94921,-10.02344 -9.47266,0 -17.51954,3.75782 -20.38282,8.98047 2.73047,-5.72656 11.34766,-9.91797 21.56641,-9.91797 9.51562,0 17.65234,3.62891 20.99609,8.76172 z M 206.75391,342.16016 c 3.66015,0 6.64843,2.875 6.82812,6.49218 h -2.34766 c -0.5,-2.68359 -2.85156,-4.71875 -5.67968,-4.71875 -2.70703,0 -4.97657,1.86328 -5.60938,4.37891 0.34766,-3.46094 3.26172,-6.15234 6.8086,-6.15234 z M 340.83594,372.125 h -8.82422 l 0.0234,-2.875 5.54687,0.0508 -1.76172,-11.26953 z m 1.33984,25.63281 h -2.83203 l -0.0117,-14.84765 c 0.0273,-3.90625 -2.68359,-6.60938 -6.02734,-6.60938 -1.06641,0 -2.06641,0.27344 -2.9375,0.75781 1.24609,-1.00781 2.83203,-1.61328 4.5625,-1.61328 4.01172,0 7.24609,3.25781 7.24609,7.26563 z m -7.91016,-43.2539 c 0,-0.73047 0.59766,-1.32422 1.32422,-1.32422 0.73438,0 1.32813,0.59375 1.32813,1.32422 0,0.73437 -0.59375,1.32812 -1.32813,1.32812 -0.72656,0 -1.32422,-0.59375 -1.32422,-1.32812 z M 79.621094,372.125 h -8.824219 l 0.02344,-2.875 5.554687,0.0508 -1.761719,-11.26953 z m 1.347656,25.63281 h -2.832031 l -0.01953,-14.84765 c 0.02734,-3.90625 -2.675782,-6.60938 -6.019532,-6.60938 -1.070312,0 -2.074218,0.27344 -2.945312,0.75781 1.246094,-1.00781 2.835937,-1.61328 4.558594,-1.61328 4.015625,0 7.257812,3.25781 7.257812,7.26563 z m -7.914062,-43.2539 c 0,-0.73047 0.59375,-1.32422 1.332031,-1.32422 0.726562,0 1.324219,0.59375 1.324219,1.32422 0,0.73437 -0.597657,1.32812 -1.324219,1.32812 -0.738281,0 -1.332031,-0.59375 -1.332031,-1.32812 z m 241.824222,87.01171 h -2.51563 v -11.8125 c 0,-1.85156 -1.27344,-3.13281 -2.85547,-3.13281 -0.50781,0 -0.98437,0.12891 -1.39453,0.35938 0.71875,-0.71094 1.71094,-1.15625 2.80469,-1.15625 2.1914,0 3.96094,1.78125 3.96094,3.98047 z m -4.66016,-18.59765 c 0,-0.67578 0.54297,-1.21485 1.21484,-1.21485 0.67969,0 1.21875,0.53907 1.21875,1.21485 0,0.66797 -0.53906,1.21875 -1.21875,1.21875 -0.67187,0 -1.21484,-0.55078 -1.21484,-1.21875 z m -15.34766,18.59765 h -2.51953 v -11.8125 c 0,-1.85156 -1.27734,-3.13281 -2.85937,-3.13281 -0.50391,0 -0.97266,0.12891 -1.38672,0.35938 0.71875,-0.71094 1.70703,-1.15625 2.80078,-1.15625 2.19531,0 3.96484,1.78125 3.96484,3.98047 z m -4.66015,-18.59765 c 0,-0.67578 0.54297,-1.21485 1.21484,-1.21485 0.67188,0 1.21875,0.53907 1.21875,1.21485 0,0.66797 -0.54687,1.21875 -1.21875,1.21875 -0.67187,0 -1.21484,-0.55078 -1.21484,-1.21875 z m 13.38672,-6.47266 h -2.20313 v -5.58594 c 0,-1.61328 -1.11719,-2.74218 -2.50391,-2.74218 -0.4375,0 -0.85156,0.11328 -1.21093,0.3125 0.6289,-0.6211 1.49609,-1.00782 2.44922,-1.00782 1.92187,0 3.46875,1.5625 3.46875,3.47657 z m -30.6875,25.07031 h -2.51954 v -11.8125 c 0,-1.85156 -1.27734,-3.13281 -2.85546,-3.13281 -0.50782,0 -0.98047,0.12891 -1.39063,0.35938 0.71875,-0.71094 1.71094,-1.15625 2.80078,-1.15625 2.19531,0 3.96485,1.78125 3.96485,3.98047 z M 268.25,422.91797 c 0,-0.67578 0.54297,-1.21485 1.21484,-1.21485 0.67188,0 1.21875,0.53907 1.21875,1.21485 0,0.66797 -0.54687,1.21875 -1.21875,1.21875 -0.67187,0 -1.21484,-0.55078 -1.21484,-1.21875 z m 11.80469,-6.47266 h -2.19922 v -5.58594 c 0,-1.61328 -1.11719,-2.74218 -2.5,-2.74218 -0.44531,0 -0.85547,0.11328 -1.21485,0.3125 0.62891,-0.6211 1.4961,-1.00782 2.44532,-1.00782 1.92187,0 3.46875,1.5625 3.46875,3.47657 z m -143.1211,0 h -2.20312 v -5.58594 c 0,-1.61328 -1.11328,-2.74218 -2.4961,-2.74218 -0.44531,0 -0.85546,0.11328 -1.21875,0.3125 0.63282,-0.6211 1.4961,-1.00782 2.44922,-1.00782 1.92188,0 3.46875,1.5625 3.46875,3.47657 z m -23.14453,0 h -2.20703 v -5.58594 c 0,-1.61328 -1.11328,-2.74218 -2.49609,-2.74218 -0.44141,0 -0.85547,0.11328 -1.21485,0.3125 0.62891,-0.6211 1.49219,-1.00782 2.44922,-1.00782 1.92188,0 3.46875,1.5625 3.46875,3.47657 z m -9.09765,25.07031 h -2.51953 v -11.8125 c 0,-1.85156 -1.27735,-3.13281 -2.863286,-3.13281 -0.5,0 -0.972656,0.12891 -1.386719,0.35938 0.71875,-0.71094 1.707031,-1.15625 2.800785,-1.15625 2.19531,0 3.96875,1.78125 3.96875,3.98047 z m -4.66797,-18.59765 c 0,-0.67578 0.54687,-1.21485 1.22265,-1.21485 0.66797,0 1.21485,0.53907 1.21485,1.21485 0,0.66797 -0.54688,1.21875 -1.21485,1.21875 -0.67578,0 -1.22265,-0.55078 -1.22265,-1.21875 z m 26.37109,18.59765 H 123.875 v -11.8125 c 0,-1.85156 -1.27734,-3.13281 -2.85937,-3.13281 -0.50391,0 -0.97657,0.12891 -1.38672,0.35938 0.71875,-0.71094 1.71093,-1.15625 2.80468,-1.15625 2.19141,0 3.96094,1.78125 3.96094,3.98047 z m -4.66406,-18.59765 c 0,-0.67578 0.54687,-1.21485 1.21875,-1.21485 0.67187,0 1.21875,0.53907 1.21875,1.21485 0,0.66797 -0.54688,1.21875 -1.21875,1.21875 -0.67188,0 -1.21875,-0.55078 -1.21875,-1.21875 z m 24.66406,18.59765 h -2.52344 v -11.8125 c 0,-1.85156 -1.27343,-3.13281 -2.85547,-3.13281 -0.5039,0 -0.97656,0.12891 -1.39062,0.35938 0.71875,-0.71094 1.71094,-1.15625 2.80078,-1.15625 2.19531,0 3.96875,1.78125 3.96875,3.98047 z m -4.66797,-18.59765 c 0,-0.67578 0.55078,-1.21485 1.21875,-1.21485 0.67188,0 1.21485,0.53907 1.21485,1.21485 0,0.66797 -0.54297,1.21875 -1.21485,1.21875 -0.66797,0 -1.21875,-0.55078 -1.21875,-1.21875 z m -64.207029,97.19531 h -2.734375 l -0.0078,-17.41797 c 0.01172,-1.75781 -1.207031,-2.97656 -2.710938,-2.97656 -0.78125,0 -1.488281,0.33203 -1.984375,0.86328 0.6875,-1.21094 1.980469,-2.01953 3.464844,-2.01953 2.195313,0 3.976563,1.77734 3.976563,3.97266 z m 23.484379,0 h -2.738285 l -0.0039,-17.41797 c 0.01172,-1.75781 -1.203125,-2.97656 -2.707031,-2.97656 -0.78125,0 -1.488282,0.33203 -1.980469,0.86328 0.679687,-1.21094 1.976562,-2.01953 3.464844,-2.01953 2.1875,0 3.968751,1.77734 3.968751,3.97266 z m 23.27343,0 h -2.73046 l -0.008,-17.41797 c 0.0117,-1.75781 -1.20312,-2.97656 -2.70703,-2.97656 -0.78125,0 -1.48828,0.33203 -1.98437,0.86328 0.67968,-1.21094 1.98047,-2.01953 3.46093,-2.01953 2.19922,0 3.97657,1.77734 3.97657,3.97266 z m 23.07422,0 h -2.74219 l -0.008,-17.41797 c 0.0156,-1.75781 -1.20312,-2.97656 -2.70312,-2.97656 -0.78125,0 -1.48828,0.33203 -1.98438,0.86328 0.6836,-1.21094 1.98047,-2.01953 3.46875,-2.01953 2.19141,0 3.97266,1.77734 3.97266,3.97266 z m 193.55078,0 h -2.73437 l -0.008,-17.41797 c 0.0156,-1.75781 -1.20704,-2.97656 -2.70704,-2.97656 -0.77734,0 -1.48437,0.33203 -1.98437,0.86328 0.6875,-1.21094 1.98047,-2.01953 3.46484,-2.01953 2.19532,0 3.97657,1.77734 3.97657,3.97266 z m -23.0664,0 h -2.73828 l -0.004,-17.41797 c 0.0117,-1.75781 -1.20703,-2.97656 -2.70703,-2.97656 -0.78516,0 -1.48828,0.33203 -1.98438,0.86328 0.67969,-1.21094 1.97657,-2.01953 3.46485,-2.01953 2.19531,0 3.97265,1.77734 3.97265,3.97266 z m -23.27735,0 h -2.73047 l -0.0117,-17.41797 c 0.0117,-1.75781 -1.20313,-2.97656 -2.70704,-2.97656 -0.78125,0 -1.48828,0.33203 -1.98437,0.86328 0.6875,-1.21094 1.98047,-2.01953 3.46094,-2.01953 2.19922,0 3.97656,1.77734 3.97656,3.97266 z m -23.48437,0 h -2.73438 l -0.008,-17.41797 c 0.0117,-1.75781 -1.20703,-2.97656 -2.71094,-2.97656 -0.78125,0 -1.48828,0.33203 -1.98437,0.86328 0.6875,-1.21094 1.98047,-2.01953 3.46484,-2.01953 2.19531,0 3.97656,1.77734 3.97656,3.97266 z m -89.88281,0 h -2.73438 l -0.004,-17.41797 c 0.008,-1.75781 -1.21093,-2.97656 -2.71093,-2.97656 -0.78125,0 -1.48828,0.33203 -1.98438,0.86328 0.6836,-1.21094 1.97656,-2.01953 3.46485,-2.01953 2.19531,0 3.97656,1.77734 3.97656,3.97266 z m 30.27734,0 -0.0156,-17.21875 c 0.0273,-4.07031 -2.78906,-6.88672 -6.26953,-6.88672 -2.39062,0 -4.47656,1.33594 -5.54297,3.29688 1.11719,-2.9336 3.96094,-5.02344 7.29297,-5.02344 4.30078,0 7.78907,3.48828 7.78907,7.79297 l -0.008,18.03906 z m 28.98828,0 h -2.73437 l -0.008,-17.41797 c 0.008,-1.75781 -1.20703,-2.97656 -2.70703,-2.97656 -0.78515,0 -1.48437,0.33203 -1.98437,0.86328 0.68359,-1.21094 1.97656,-2.01953 3.46484,-2.01953 2.19141,0 3.97656,1.77734 3.97656,3.97266 z m -58.14062,63.92188 h -2.96485 L 179.34375,550 c 0.0234,-4.08203 -2.52344,-6.91016 -5.66406,-6.91016 -1.59375,0 -3.03907,0.73438 -4.07032,1.91016 1.26563,-1.98828 3.35938,-3.28125 5.71875,-3.28125 3.86329,0 7.00391,3.47656 7.00391,7.77734 z m 59.66406,0 h -2.96485 L 239.00391,550 c 0.0234,-4.08203 -2.52344,-6.91016 -5.66407,-6.91016 -1.59765,0 -3.03515,0.73438 -4.07031,1.91016 1.26953,-1.98828 3.35938,-3.28125 5.71875,-3.28125 3.86719,0 7,3.47656 7,7.77734 z m -25.58985,0 h -3.72265 l -0.0195,-35.92579 c 0.0352,-5.27343 -3.6211,-8.93359 -8.13282,-8.93359 -2.03906,0 -3.90625,0.75 -5.33593,1.98047 1.7539,-2.30078 4.51953,-3.79297 7.63672,-3.79297 5.29687,0 9.58984,4.29688 9.58984,9.58984 z m 6.26954,-170.59375 0.15234,-1.84766 3.78906,0.008 -1.02734,-5.20312 3.0039,7.04297 z m 1.38281,-10.25391 c 0,-0.6875 0.55859,-1.24609 1.24609,-1.24609 0.69141,0 1.2461,0.55859 1.2461,1.24609 0,0.6875 -0.55469,1.25 -1.2461,1.25 -0.6875,0 -1.24609,-0.5625 -1.24609,-1.25 z M 62.570313,426.19531 h -9.417969 v -2.66797 h 6.152344 l -2.484375,-17.27343 z m 0,24.48438 H 59.785156 V 432.39453 L 52.625,429.59766 h 9.945313 z M 359.89453,426.19531 h -9.41797 v -2.66797 h 6.15625 l -2.48828,-17.27343 z m 0,24.48438 h -2.78516 v -18.28516 l -7.16015,-2.79687 h 9.94531 z M 252.91016,426.33594 h -7 v -2.75782 h 3.92968 l -1.9414,-11.34375 z m 0,21.82812 -2.81641,0.0469 v -15.53907 l -4.79297,-1.41406 h 7.60938 z m -84.79297,-21.82812 h -7 v -2.75782 h 3.92968 l -1.94531,-11.34375 z m 0,21.82812 -2.81641,0.0469 v -15.53907 l -4.78516,-1.41406 h 7.60157 z m 173.03125,133.69922 h -2.85938 l 0.004,-10.99609 -5.10156,-0.98047 h 7.95703 z m -23.25,0 h -2.85938 l 0.004,-10.99609 -5.10547,-0.98047 h 7.96094 z m -23.14063,0 h -2.85937 v -10.99609 l -5.10157,-0.98047 h 7.96094 z m -23.78125,0 h -2.85547 l 0.004,-10.99609 -5.10547,-0.98047 h 7.95703 z m -123.4375,0 h -2.85937 v -10.99609 l -5.09766,-0.98047 h 7.95703 z m -23.2539,0 h -2.86328 l 0.008,-10.99609 -5.10547,-0.98047 h 7.96094 z m -23.13672,0 h -2.863284 l 0.0039,-10.99609 -5.105469,-0.98047 h 7.964843 z m -23.781252,0 h -2.859375 v -10.99609 l -5.097657,-0.98047 h 7.957032 z m 263.781252,-26.09375 -2.85938,0.008 0.004,-15.05468 -5.10156,-0.97657 h 7.95703 z m -23.25,0 -2.85938,0.008 0.004,-15.05468 -5.10547,-0.97657 h 7.96094 z m -23.14063,0 -2.85937,0.008 v -15.05468 l -5.10157,-0.97657 h 7.96094 z m -23.78125,0 -2.85547,0.008 0.004,-15.05468 -5.10547,-0.97657 h 7.95703 z m -123.4375,0 -2.85937,0.008 v -15.05468 l -5.09766,-0.97657 h 7.95703 z m -23.2539,0 -2.86328,0.008 0.008,-15.05468 -5.10547,-0.97657 h 7.96094 z m -23.13672,0 -2.863284,0.008 0.0039,-15.05468 -5.105469,-0.97657 h 7.964843 z m -23.781252,0 -2.859375,0.008 v -15.05468 l -5.097657,-0.97657 h 7.957032 z m 263.781252,-71.72266 -2.85938,0.004 0.004,-15.04687 -5.10156,-0.98438 h 7.95703 z m -23.25,0 -2.85938,0.004 0.004,-15.04687 -5.10547,-0.98438 h 7.96094 z m -23.14063,0 -2.85937,0.004 V 469.004 l -5.10157,-0.98438 h 7.96094 z m -23.78125,0 -2.85547,0.004 0.004,-15.04687 -5.10547,-0.98438 h 7.95703 z m -30.59375,0 -2.85937,0.004 V 469.004 l -5.09375,-0.98438 h 7.95312 z m -59.45703,0 -2.85937,0.004 V 469.004 l -5.09766,-0.98438 h 7.95703 z m -33.38672,0 -2.85937,0.004 V 469.004 l -5.09766,-0.98438 h 7.95703 z m -23.2539,0 -2.86328,0.004 0.008,-15.04687 -5.10547,-0.98438 h 7.96094 z m -23.13672,0 -2.863284,0.004 0.0039,-15.04687 -5.105469,-0.98438 h 7.964843 z m 250.12109,47.69532 -95.44141,-3.33985 h 95.3711 z M 68.128906,431.55859 77.148438,401.94141 h 91.695312 v 2.13281 H 78.535156 Z m -3.230468,96.84375 h 90.425782 v 2.28907 z m 92.019532,55.63282 -0.004,-49.59375 h 3.34766 v 49.59375 z M 64.898438,455.16797 h 90.425782 v 2.30469 z M 156.875,520.125 v -59.13672 h 3.38672 v 59.125 z m -79.507812,-36.07813 -2.859375,0.004 V 469.004 l -5.097657,-0.98438 h 7.957032 z m 107.636722,-70.60546 0.15234,-1.84766 3.78516,0.008 -1.02344,-5.20312 3.0039,7.04297 z m 1.26953,-10.25391 c 0,-0.6875 0.55859,-1.24609 1.24609,-1.24609 0.69141,0 1.24609,0.55859 1.24609,1.24609 0,0.6875 -0.55468,1.25 -1.24609,1.25 -0.6875,0 -1.24609,-0.5625 -1.24609,-1.25 z m 16.76172,2.10937 0.46484,-2.25781 4.8125,0.0117 -1.57422,-6.71484 3.82422,8.96093 z M 205.31641,392.25 c 0,-0.78516 0.63671,-1.42969 1.42578,-1.42969 0.78906,0 1.42578,0.64453 1.42578,1.42969 0,0.79297 -0.63672,1.43359 -1.42578,1.43359 -0.78907,0 -1.42578,-0.64062 -1.42578,-1.43359 z m -17.82422,29.10937 19.26172,-12.40625 19.86718,12.40625 v 19.86719 h -3.48047 v -19.1914 l -16.38671,-11.83985 z m 155.98828,8.57813 -9.21875,-26.06641 -87.92578,-2.15625 h 90.13281 l 10.19922,28.21094 z m -179.33985,98.49219 h 83.97657 v 2.84375 z m 85.52344,55.60547 v -49.59375 h 3.42188 v 49.59375 z M 53.691406,520.11328 v -60.5625 h 1.894532 v 60.5625 z M 178.40234,384.60937 h 53.53907 l 10.30859,41.79688 -2.84766,-0.0391 -10.07812,-39.9336 z m 18.00391,-15.39843 h 19.86328 l 15.02344,12.07812 h -3.97266 l -13.08984,-10.67969 z m 9.39844,-30.32422 v -54.48047 h 1.89453 v 54.48047 z m 7.03125,27.04297 0.008,-11.47266 -15.10938,-2.75 h 17.95704 l 0.004,14.22266 z m -15.38672,57.9375 9.28125,-6.82422 6.66015,4.46875 c 1.91407,1.51172 3.25391,3.60937 3.25391,6.23437 v 10.39063 h -2.84766 v -10.42578 c 0,-2.2461 -1.14843,-4.04297 -2.79296,-5.33203 l -5.69532,-3.82422 z m 2.37109,40.11328 c 0.9961,-1.33203 3.78516,-3.26563 7.07422,-3.26563 4.12109,0 7.46094,3.03907 7.46094,4.10938 l 0.0234,19.14453 h -3.47657 l -0.0156,-18.01172 c 0,-0.95312 -2.42969,-3.64844 -6.08985,-3.64844 -1.98437,0 -3.76171,0.79297 -4.97656,1.67188 z m 64.71094,-8.8125 h 90.54687 v 2.70312 z m 91.89062,73.05859 -0.004,-67.23828 h 3.47656 v 67.23828 z m 3.47266,62.04297 -105.25,-0.004 v -2.83203 h 101.77734 v -52.99218 h 3.47266 z m -116.02734,-0.004 v -2.82812 h 4.22265 v 2.82812 z m -26.01172,0 v -2.82812 h 19.45703 v 2.82812 z m -6.55469,0 -27.28906,-0.004 v -2.82813 h 27.28906 z m -49.38672,-0.004 v -2.82422 h 15.53906 v 2.82422 z m -6.55078,0 -101.511717,-0.004 v -58.90625 h 1.894531 v 56.08203 h 99.617186 z m 0,0"
         id="path9001" />
    </g>
  </g>
</svg>
